<svg width="383" height="135" fill="none" xmlns="http://www.w3.org/2000/svg" viewBox="0 0 383 135">
                    <path fill-rule="evenodd" clip-rule="evenodd" d="M4.87 91.2A64.17 64.17 0 0 1 53.23 7.44l-.09.14-3.48 6A58.12 58.12 0 0 0 9.22 83.63L4.87 91.2ZM110.27 116.35a64.13 64.13 0 0 1-89.45 0h10.43a58.063 58.063 0 0 0 68.59 0h10.43ZM77.86 7.44a64.171 64.171 0 0 1 48.36 83.76l-4.35-7.53a58.129 58.129 0 0 0-40.44-70.06l31.49 54.54-35-60.57-.06-.14Z" fill="#636363"></path>
                    <path fill-rule="evenodd" clip-rule="evenodd" d="m72.36 10.81 25.2 43.64 25.17 43.65a7.871 7.871 0 0 1-.004 7.866 7.882 7.882 0 0 1-6.806 3.944H15.16a7.887 7.887 0 0 1-6.814-3.939A7.882 7.882 0 0 1 8.34 98.1l25.19-43.64 25.2-43.65a7.86 7.86 0 0 1 13.63 0Zm5.59-3.23 50.39 87.28a14.332 14.332 0 0 1-5.241 19.566 14.327 14.327 0 0 1-7.159 1.924H15.16a14.335 14.335 0 0 1-12.414-7.153A14.326 14.326 0 0 1 2.73 94.87L53.12 7.59a14.33 14.33 0 0 1 24.81 0l.02-.01Z" fill="#636363"></path>
                    <path fill-rule="evenodd" clip-rule="evenodd" d="m31.55 81.66 12.19-21.11 12.9-22.35h16.11L59.84 60.55 47.66 81.66H31.55ZM76.4 41.56l10.96 18.99 12.19 21.11H83.44L68.35 55.51l8.05-13.95Z" fill="#2B2A29"></path>
                    <path fill-rule="evenodd" clip-rule="evenodd" d="M65.55 98.34h-23.1L31.12 87.01h68.86L88.65 98.34h-23.1Z" fill="#EC6731"></path>
                    <path d="M288.79 35.65V46.8h25.14c3 0 4.53.51 4.53 1.45v3.28c0 .94-1.51 1.45-4.6 1.45h-9.82v10.51h9.82c3.15 0 4.73.51 4.73 1.45v4.1c0 .94-1.52 1.45-4.54 1.45h-25.57v11.14h28.34c9.76 0 14.74-3.46 14.74-10.45v-5c0-3.52-2.08-6.23-6.17-7.74 3.78-1.58 5.6-4.41 5.6-8.07v-4.28c0-7-4.91-10.46-14.74-10.46l-27.46.02Zm-59.06 0v46h32.06c11.15 0 16.7-4.09 16.7-12.34v-4c0-8.25-5.55-12.34-16.7-12.34h-16.43v10.51h14.92c3.4 0 5.1.7 5.1 2.08v2.84c0 1.38-1.7 2.08-5.1 2.08h-17.44V46.8h27.52V35.65h-40.63Zm-47.28 27.53-5.16 10.33h23.37l4 8.12h14.36l-24.44-46h-13.45l-23.81 46h13.41l17.07-34.32 7.81 15.87h-13.16Z" fill="#636363"></path>
                    <path d="M362.65 35.65V46.8h3.72c2.33 0 3.46.44 3.46 1.33v33.5h13.1v-36c0-6.62-4.4-10-13.22-10l-7.06.02Z" fill="#EC6933"></path>
                    <path d="M380.08 86.15a1.702 1.702 0 0 1-1.73 1.3 1.728 1.728 0 0 1-1.74-1.3l-1.65.79a3.761 3.761 0 0 0 6.78 0l-1.66-.79Zm-6.35 4.49v8.95h2.52l4.13-5.52v5.52h2.52v-8.95h-2.52l-4.13 5.51v-5.51h-2.52Zm-16.85 0v8.95h2.53l4.13-5.52v5.52h2.52v-8.95h-2.52l-4.13 5.51v-5.51h-2.53Zm-16.15 8.95h2.52v-3.64h3.48v3.64h2.53v-8.95h-2.53v3.16h-3.51v-3.16h-2.49v8.95Zm-12.42-7a2.53 2.53 0 1 1-2.48 2.52 2.433 2.433 0 0 1 1.483-2.339c.303-.128.628-.193.957-.191l.04.01Zm2.23-.79a3.242 3.242 0 0 0-2.87-1.44 4.485 4.485 0 0 0-3.248 1.417 4.474 4.474 0 0 0-1.202 3.333 4.546 4.546 0 0 0 2.768 4.413 4.54 4.54 0 0 0 1.802.357 3.21 3.21 0 0 0 2.75-1.44v1.16h2.52v-8.95h-2.52v1.15Zm-23-1.15v8.95h2.52v-6.8h3.43v6.8h2.52v-8.95h-8.47Zm-18.62 8.95h2.52l.74-4.86 2.32 5h.74l2.31-5 .75 4.86h2.52l-1.63-9.2h-1.86l-2.5 5.4-2.46-5.39h-1.86l-1.59 9.19Zm-11.39-1.95a2.528 2.528 0 0 1-2.492-3.021 2.53 2.53 0 0 1 5.012.501 2.48 2.48 0 0 1-2.56 2.51l.04.01Zm0-7.29a5.17 5.17 0 0 0-3.62 1.26 4.814 4.814 0 0 0-1.117 5.406c.26.602.64 1.144 1.117 1.594a5.82 5.82 0 0 0 7.23 0 4.813 4.813 0 0 0 1.117-5.406 4.814 4.814 0 0 0-1.117-1.594 5.14 5.14 0 0 0-3.65-1.27l.04.01Zm-20.28.29v8.95h2.48v-3.33l.38-.37 3.09 3.7h3.23l-4.26-5 4-4h-3.14l-3.3 3.51v-3.47l-2.48.01Zm-17.24 1.94a2.53 2.53 0 1 1-2.48 2.52 2.433 2.433 0 0 1 1.483-2.339c.303-.128.628-.193.957-.191l.04.01Zm2.24-.79a3.241 3.241 0 0 0-2.88-1.44 4.48 4.48 0 0 0-4.44 4.75 4.546 4.546 0 0 0 2.768 4.413 4.54 4.54 0 0 0 1.802.357 3.21 3.21 0 0 0 2.75-1.44v1.16h2.48v-8.95h-2.52l.04 1.15Zm-23-1.15v8.95h2.48v-6.8h3.44v6.8h2.56v-8.95h-8.48Zm-16.14 0v8.95h2.52v-6.8h3.43v6.8h2.53v-8.95h-8.48Zm-16.57 13.74h2.85l7.21-13.74h-2.87l-2.48 5.08-2.77-5.08h-2.93l4.25 7.6-3.26 6.14Zm-12.12-11.8a2.53 2.53 0 1 1-2.48 2.52 2.421 2.421 0 0 1 .675-1.783 2.436 2.436 0 0 1 1.755-.747l.05.01Zm-2.23 5.85a3.39 3.39 0 0 0 2.85 1.44 4.46 4.46 0 0 0 4.47-4.77c0-2.71-1.76-4.75-4.4-4.75a3.469 3.469 0 0 0-2.92 1.44v-1.15h-2.52v13.74h2.52v-5.95Zm-14.82 1.16h2.52v-6.8h3.19v-2.15h-5.71v8.95Z" fill="#636363"></path>
                    <path fill-rule="evenodd" clip-rule="evenodd" d="M348.2 53.71a4.778 4.778 0 0 1 4.699 5.706 4.777 4.777 0 0 1-6.516 3.491 4.783 4.783 0 0 1-2.953-4.417 4.78 4.78 0 0 1 4.77-4.78Z" fill="#EC6731"></path>
                </svg>