<?xml version="1.0" encoding="utf-8"?>
<!-- Generator: Adobe Illustrator 24.0.0, SVG Export Plug-In . SVG Version: 6.00 Build 0)  -->
<svg version="1.1" id="Logo" xmlns="http://www.w3.org/2000/svg" xmlns:xlink="http://www.w3.org/1999/xlink" x="0px" y="0px"
	 viewBox="0 0 558 398" style="enable-background:new 0 0 558 398;" xml:space="preserve">
<style type="text/css">
	.st0{fill:#1E3582;}
	.st1{fill:#F49600;}
</style>
<g>
	<g>
		<path class="st0" d="M537.28,308.54c-14.56,0-20.9,7.76-20.9,17.63v46.75c0,12.48,6.52,19.74,20.81,19.74
			c14.47,0,20.81-7.26,20.81-19.74v-46.67C558,316.48,551.84,308.54,537.28,308.54z M542.55,375.55c0,3.75-2.77,5.59-5.36,5.59
			c-2.68,0-5.36-1.83-5.36-5.59v-33.62c-0.1-1.87-0.1-3.77,0-5.61V325.2c0-3.58,2.69-5.14,5.36-5.14c2.59,0,5.36,1.57,5.36,5.14
			V375.55z"/>
		<polygon class="st0" points="477.25,309.93 477.25,327.91 477.25,344.68 477.25,391.18 492.69,391.18 492.69,321.8 513.15,321.8 
			513.15,309.93 		"/>
		<polygon class="st0" points="385.45,309.93 385.45,391.18 421.36,391.18 421.36,379.3 400.9,379.3 400.9,355.55 419.22,355.55 
			419.22,343.68 400.9,343.68 400.9,321.8 421.36,321.8 421.36,309.93 385.45,309.93 		"/>
		<polygon class="st0" points="360.61,309.93 360.61,343.68 350.51,343.68 350.51,339.69 350.51,322.25 350.51,310.29 
			350.41,309.93 335.06,309.93 335.06,391.18 350.51,391.18 350.51,355.55 360.61,355.55 360.61,391.18 376.06,391.18 
			376.06,309.93 		"/>
		<path class="st0" d="M307.72,308.54c-14.47,0-20.9,8.02-20.9,17.81v4.4h15.46v-5.8c0-3.32,3.21-4.89,5.63-4.89
			c2.59,0,5.27,1.48,5.27,4.71v18.34h-19.72v11.88h19.72v19.6c0,4.72-2.05,6.55-5.27,6.55c-2.93,0-5.08-1.37-5.54-4.96
			c-0.05-0.46-0.09-0.97-0.09-1.51v-6.46h-3.95h-11.51v4.01c0,14.23,6.61,20.44,20.9,20.44c3.93,0,7.28-0.47,10.07-1.45
			c3.94-1.38,6.77-3.76,8.55-7.29c0.47-0.94,0.87-1.96,1.2-3.06c0.69-2.33,1.05-5.02,1.08-8.1l0-0.53v-46.06
			C328.62,316.3,322.38,308.54,307.72,308.54z"/>
		<polygon class="st0" points="264.93,391.18 280.38,391.18 280.38,309.93 264.93,309.93 264.93,343.68 254.83,343.68 
			254.83,309.93 239.38,309.93 239.38,391.18 254.83,391.18 254.83,355.55 264.93,355.55 264.93,391.18 		"/>
		<path class="st0" d="M212.12,308.54c-13.3,0-19.74,6.48-20.76,15.12c-0.09,0.82-0.14,1.66-0.14,2.51v22.72v24.04
			c0,12.48,6.51,19.74,20.81,19.74c14.47,0,20.81-7.26,20.81-19.74v-46.67C232.85,316.48,226.69,308.54,212.12,308.54z
			 M217.39,375.55c0,3.75-2.77,5.59-5.36,5.59c-2.68,0-5.36-1.83-5.36-5.59V325.2c0-3.58,2.68-5.14,5.36-5.14
			c2.59,0,5.36,1.57,5.36,5.14V375.55z"/>
		<path class="st0" d="M167.37,309.36h-22.42v81.25h15.46v-30.37c0,0,1.74,0.24,4.32,0.24c2.2,0,5.01-0.17,7.88-0.83
			c6.05-1.38,12.21-6.48,13.31-12.71c0.62-3.5,0.85-6.97,0.83-11.69c-0.02-4.07,0.07-8.37-0.48-11.69
			C185.07,316.4,177.93,309.36,167.37,309.36z M163.35,348.98h-2.94v-28.35h2.67c1,0,2.07,0.19,3.13,0.61
			c3.68,1.47,7.25,5.79,7.25,15.08c0,4.45-1.4,7.51-3.28,9.52C168.08,348.07,165.38,348.98,163.35,348.98z"/>
		<path class="st0" d="M452.77,309.36h-22.42v81.25h15.46v-30.37c0,0,1.74,0.24,4.32,0.24c2.2,0,5.01-0.17,7.88-0.83
			c6.05-1.38,12.21-6.48,13.31-12.71c0.62-3.5,0.85-6.97,0.83-11.69c-0.03-4.07,0.07-8.37-0.48-11.69
			C470.47,316.4,463.33,309.36,452.77,309.36z M448.75,348.98h-2.94v-28.35h2.67c1,0,2.07,0.19,3.13,0.61
			c3.68,1.47,7.25,5.79,7.25,15.08c0,4.45-1.4,7.51-3.28,9.52C453.48,348.07,450.78,348.98,448.75,348.98z"/>
		<path class="st0" d="M116.35,392.66c14.47,0,20.81-7.26,20.81-19.74v-46.67c0-9.78-6.16-17.72-20.72-17.72
			c-14.56,0-20.91,7.76-20.91,17.63v46.75C95.54,385.41,102.07,392.66,116.35,392.66L116.35,392.66z M111,325.2
			c0-3.58,2.68-5.14,5.36-5.14c2.59,0,5.35,1.57,5.35,5.14v50.35c0,3.75-2.76,5.59-5.35,5.59c-2.68,0-5.36-1.83-5.36-5.59V325.2
			L111,325.2z"/>
		<path class="st0" d="M75.9,340.89c-2.86-0.65-5.68-0.83-7.87-0.83c-2.59,0-4.33,0.25-4.33,0.25v-19.11h21.77v-11.26H48.25v81.25
			h22.42c15.01,0,19.9-11.54,19.9-27.51C90.57,348.21,84.53,342.85,75.9,340.89z M66.38,379.91H63.7v-28.35h2.95
			c1.53,0,3.45,0.52,5.2,1.73c2.64,1.83,4.92,5.26,4.92,10.93c0,7.5-2.33,11.76-5.17,13.9C69.91,379.4,68.04,379.91,66.38,379.91z"
			/>
		<path class="st0" d="M37.8,314.87c-3.29-3.87-8.79-6.33-16.9-6.33c-2.91,0-5.49,0.3-7.76,0.88C4.07,311.73,0,318.28,0,326.17v3.51
			v12.28v30.97c0,12.48,6.52,19.74,20.81,19.74c14.47,0,20.82-7.26,20.82-19.74v-6.59v-20.49v-19.58
			C41.63,321.92,40.41,317.95,37.8,314.87z M26.18,375.55c0,3.75-2.77,5.59-5.36,5.59c-2.68,0-5.36-1.83-5.36-5.59V325.2
			c0-3.58,2.68-5.14,5.36-5.14c2.59,0,5.36,1.57,5.36,5.14V375.55z"/>
	</g>
	<polygon class="st1" points="187.26,281.49 273.68,218.95 222.22,181.6 	"/>
	<polygon class="st1" points="271.97,135.14 244.18,116.56 228.1,164.47 	"/>
	<polygon class="st1" points="139.11,112.69 179.07,141.44 231.92,112.69 	"/>
	<polygon class="st1" points="235.74,118.88 185.26,146.12 218.4,169.47 	"/>
	<polygon class="st1" points="225.78,174.94 274.79,210.8 274.79,142.22 	"/>
	<polygon class="st1" points="329.29,164.32 313.05,116.4 284.8,135.41 	"/>
	<polygon class="st1" points="282.24,128.13 305.15,112.69 282.24,112.69 	"/>
	<polygon class="st1" points="283.16,219.13 366.69,280.17 364.53,273.63 364.39,273.23 364.4,273.23 334.11,181.31 	"/>
	<polygon class="st1" points="376.98,141.14 417.62,112.69 325.3,112.69 	"/>
	<path class="st1" d="M274.81,128.13v-15.44c-7.7,0-23.41,0-23.41,0L274.81,128.13z"/>
	<polygon class="st1" points="338.72,169.8 370.99,146.02 321.58,119.12 	"/>
	<polygon class="st1" points="331.92,174.67 282.22,141.82 282.22,210.94 332.24,175.61 	"/>
	<polygon class="st1" points="309.06,105.36 279.17,5.34 248.02,105.36 	"/>
</g>
</svg>
