<?xml version="1.0" encoding="UTF-8" standalone="no"?>
<svg
   version="1.0"
   width="1024.000000pt"
   height="299.000000pt"
   viewBox="0 0 1024.000000 299.000000"
   preserveAspectRatio="xMidYMid meet"
   id="svg68"
   sodipodi:docname="logo-rosseti.svg"
   inkscape:version="1.2 (dc2aedaf03, 2022-05-15)"
   xmlns:inkscape="http://www.inkscape.org/namespaces/inkscape"
   xmlns:sodipodi="http://sodipodi.sourceforge.net/DTD/sodipodi-0.dtd"
   xmlns="http://www.w3.org/2000/svg"
   xmlns:svg="http://www.w3.org/2000/svg">
  <defs
     id="defs72" />
  <sodipodi:namedview
     id="namedview70"
     pagecolor="#ffffff"
     bordercolor="#000000"
     borderopacity="0.25"
     inkscape:showpageshadow="2"
     inkscape:pageopacity="0.0"
     inkscape:pagecheckerboard="0"
     inkscape:deskcolor="#d1d1d1"
     inkscape:document-units="pt"
     showgrid="false"
     inkscape:zoom="0.98730469"
     inkscape:cx="683.1731"
     inkscape:cy="199.53314"
     inkscape:window-width="1920"
     inkscape:window-height="1017"
     inkscape:window-x="-8"
     inkscape:window-y="-8"
     inkscape:window-maximized="1"
     inkscape:current-layer="svg68" />
  <g
     transform="matrix(0.1,0,0,-0.1,0,299)"
     fill="#000000"
     stroke="none"
     id="g66"
     style="fill:#0e67b0;fill-opacity:1"
     inkscape:highlight-color="#aaaaaa">
    <path
       d="M 1315,2979 C 1005,2939 707,2796 470,2573 l -75,-71 35,-6 c 44,-8 1203,-146 1224,-146 9,0 16,6 16,13 0,7 13,28 29,48 l 29,35 -154,269 c -105,185 -159,270 -171,271 -10,1 -49,-2 -88,-7 z"
       id="path38"
       style="fill:#0e67b0;fill-opacity:1" />
    <path
       d="m 1650,2872 c 27,-64 73,-175 103,-247 l 54,-130 61,-6 c 44,-4 73,-14 102,-34 22,-15 40,-30 40,-34 1,-3 9,-16 20,-29 l 18,-22 279,65 c 152,37 279,67 280,69 7,6 -133,133 -217,196 -103,77 -291,175 -410,214 -79,26 -240,60 -327,69 l -51,6 z"
       id="path40"
       style="fill:#0e67b0;fill-opacity:1" />
    <path
       d="m 2390,2320 c -168,-22 -310,-39 -316,-39 -6,-1 -16,-19 -23,-42 -7,-23 -15,-47 -17,-54 -6,-15 934,-911 944,-900 4,4 7,100 7,213 0,222 -10,295 -61,457 -49,155 -182,406 -213,404 -9,-1 -153,-18 -321,-39 z"
       id="path42"
       style="fill:#0e67b0;fill-opacity:1" />
    <path
       d="M 226,2264 C 77,2010 13,1753 22,1449 c 3,-86 9,-163 14,-171 7,-11 159,74 779,438 424,249 789,464 811,477 34,20 41,29 37,49 l -4,24 -642,32 c -353,18 -665,35 -694,38 l -51,6 z"
       id="path44"
       style="fill:#0e67b0;fill-opacity:1" />
    <path
       d="M 905,1624 C 465,1335 99,1092 92,1086 82,1076 84,1060 106,999 182,786 325,570 488,419 583,331 772,198 783,211 c 3,2 218,435 480,961 452,910 483,979 448,978 -4,0 -366,-237 -806,-526 z"
       id="path46"
       style="fill:#0e67b0;fill-opacity:1" />
    <path
       d="m 1942,2108 c -13,-7 -21,-18 -18,-27 3,-9 71,-430 152,-936 80,-506 150,-924 155,-929 13,-15 199,115 296,208 171,162 291,343 379,575 13,35 24,69 24,77 0,10 -955,1046 -963,1043 -1,0 -12,-5 -25,-11 z"
       id="path48"
       style="fill:#0e67b0;fill-opacity:1" />
    <path
       d="m 4809,2107 c -132,-37 -229,-141 -258,-275 -14,-67 -15,-569 -1,-642 24,-126 86,-212 188,-262 64,-32 71,-33 187,-33 109,0 125,2 176,26 113,53 188,154 208,279 16,99 14,541 -3,621 -27,126 -93,212 -202,264 -49,23 -75,29 -154,32 -58,2 -113,-2 -141,-10 z m 196,-251 c 55,-36 60,-61 63,-311 4,-290 0,-326 -42,-373 -28,-30 -40,-36 -87,-39 -66,-5 -107,17 -133,71 -15,32 -17,68 -14,315 l 3,280 30,31 c 17,18 39,36 50,41 28,13 100,4 130,-15 z"
       id="path50"
       style="fill:#0e67b0;fill-opacity:1" />
    <path
       d="m 5837,2110 c -99,-25 -183,-94 -229,-188 l -33,-67 v -345 c 0,-341 0,-346 24,-405 37,-90 117,-167 205,-194 184,-57 384,-1 471,132 32,50 63,132 53,142 -7,7 -201,65 -218,65 -9,0 -22,-15 -29,-35 -19,-52 -64,-80 -132,-80 -62,0 -87,15 -118,70 -14,26 -16,68 -16,300 0,253 1,272 20,305 58,99 206,87 249,-20 18,-46 7,-46 153,-1 63,19 89,32 91,45 6,31 -56,141 -104,186 -73,67 -140,93 -253,96 -53,2 -113,-1 -134,-6 z"
       id="path52"
       style="fill:#0e67b0;fill-opacity:1" />
    <path
       d="m 6827,2110 c -96,-25 -183,-93 -227,-181 -45,-89 -52,-157 -48,-461 5,-301 11,-338 71,-432 39,-62 127,-120 205,-137 31,-6 95,-9 142,-7 69,3 98,10 150,35 100,47 174,134 194,230 7,30 6,32 -31,42 -21,6 -75,21 -120,34 l -82,24 -6,-27 c -3,-15 -21,-42 -40,-60 -64,-62 -173,-49 -211,26 -17,35 -19,66 -22,304 -2,238 -1,269 15,300 36,69 118,99 182,65 37,-19 81,-71 81,-96 0,-10 3,-19 8,-19 4,0 57,15 117,34 106,32 110,34 108,60 -6,85 -110,208 -208,246 -67,26 -212,36 -278,20 z"
       id="path54"
       style="fill:#0e67b0;fill-opacity:1" />
    <path
       d="M 3570,1505 V 900 h 125 125 v 220 220 h 88 c 161,0 263,32 337,105 152,153 133,483 -35,597 -87,59 -140,68 -407,68 h -233 z m 492,337 c 32,-31 33,-35 33,-112 0,-73 -2,-81 -29,-109 -34,-36 -104,-54 -186,-49 l -55,3 -3,140 c -1,76 0,145 3,153 4,11 26,13 105,10 97,-3 100,-4 132,-36 z"
       id="path56"
       style="fill:#0e67b0;fill-opacity:1" />
    <path
       d="M 7570,1505 V 900 h 350 350 v 115 115 l -222,2 -223,3 v 130 130 l 193,3 192,2 v 110 110 l -192,2 -193,3 -3,128 -3,127 h 226 225 v 115 115 h -350 -350 z"
       id="path58"
       style="fill:#0e67b0;fill-opacity:1" />
    <path
       d="m 8420,2000 v -109 l 128,-3 127,-3 3,-492 2,-493 h 125 125 v 495 495 h 130 130 v 110 110 h -385 -385 z"
       id="path60"
       style="fill:#0e67b0;fill-opacity:1" />
    <path
       d="M 9400,1505 V 900 h 118 117 l 165,325 c 91,178 168,325 173,325 4,0 7,-146 7,-325 V 900 h 125 125 v 605 605 h -116 -115 l -174,-352 -174,-353 -1,353 v 352 h -125 -125 z"
       id="path62"
       style="fill:#0e67b0;fill-opacity:1" />
    <path
       d="M 1375,1114 C 1139,578 945,135 945,132 c 0,-12 153,-61 259,-84 137,-30 444,-32 581,-5 121,25 275,75 274,90 0,7 -48,449 -107,982 -102,919 -108,970 -127,973 -17,2 -75,-122 -450,-974 z"
       id="path64"
       style="fill:#0e67b0;fill-opacity:1" />
  </g>
</svg>
