<?xml version="1.0" encoding="UTF-8" standalone="no"?>
<svg
   version="1.0"
   width="2140.000000pt"
   height="1093.000000pt"
   viewBox="0 0 2140.000000 1093.000000"
   preserveAspectRatio="xMidYMid meet"
   id="svg2081"
   sodipodi:docname="serviceTelecom.svg"
   inkscape:version="1.2 (dc2aedaf03, 2022-05-15)"
   xmlns:inkscape="http://www.inkscape.org/namespaces/inkscape"
   xmlns:sodipodi="http://sodipodi.sourceforge.net/DTD/sodipodi-0.dtd"
   xmlns="http://www.w3.org/2000/svg"
   xmlns:svg="http://www.w3.org/2000/svg">
  <defs
     id="defs2085" />
  <sodipodi:namedview
     id="namedview2083"
     pagecolor="#ffffff"
     bordercolor="#000000"
     borderopacity="0.25"
     inkscape:showpageshadow="2"
     inkscape:pageopacity="0.0"
     inkscape:pagecheckerboard="0"
     inkscape:deskcolor="#d1d1d1"
     inkscape:document-units="pt"
     showgrid="false"
     inkscape:zoom="0.47242991"
     inkscape:cx="1427.725"
     inkscape:cy="728.15035"
     inkscape:window-width="1920"
     inkscape:window-height="1017"
     inkscape:window-x="-8"
     inkscape:window-y="-8"
     inkscape:window-maximized="1"
     inkscape:current-layer="g2079" />
  <g
     transform="translate(0.000000,1093.000000) scale(0.100000,-0.100000)"
     fill="#000000"
     stroke="none"
     id="g2079">
    <path
       d="M3833 9569 c-18 -5 -35 -14 -38 -19 -3 -6 -13 -10 -20 -10 -22 0 -85 -68 -85 -91 0 -11 -7 -27 -15 -35 -8 -9 -15 -30 -15 -48 0 -19 7 -39 15 -46 8 -7 15 -24 15 -38 0 -30 71 -102 101 -102 10 0 19 -4 19 -9 0 -5 12 -12 27 -16 15 -3 30 -11 34 -16 3 -5 16 -12 29 -14 13 -2 26 -8 29 -12 3 -5 31 -21 61 -36 30 -15 78 -41 105 -57 28 -17 61 -36 75 -43 14 -6 33 -19 44 -29 10 -9 31 -22 47 -28 16 -7 29 -16 29 -20 0 -5 15 -14 34 -20 19 -6 51 -24 71 -40 20 -16 46 -32 58 -36 12 -3 34 -19 49 -35 15 -16 34 -29 43 -29 8 0 18 -7 21 -15 4 -8 11 -15 18 -15 7 0 23 -13 36 -30 14 -16 29 -29 34 -30 5 0 16 -7 25 -15 9 -8 59 -57 113 -108 53 -50 119 -112 147 -137 71 -63 129 -121 181 -182 25 -28 80 -87 123 -130 42 -44 84 -91 91 -106 8 -15 37 -51 65 -81 28 -30 51 -60 51 -67 0 -6 23 -36 50 -65 28 -29 50 -58 50 -64 0 -5 13 -25 29 -44 16 -19 35 -46 43 -60 7 -14 23 -36 35 -48 13 -12 23 -28 23 -36 0 -8 9 -25 21 -38 11 -13 28 -37 36 -54 9 -16 22 -35 30 -43 7 -8 21 -28 30 -45 9 -18 19 -34 22 -37 4 -3 22 -34 40 -70 19 -36 42 -76 52 -89 11 -13 19 -30 19 -37 0 -8 4 -14 10 -14 5 0 13 -12 16 -27 4 -16 10 -30 14 -33 11 -8 140 -271 140 -285 0 -7 4 -15 10 -17 5 -1 11 -13 13 -26 2 -13 8 -27 13 -30 6 -4 21 -36 34 -72 13 -36 27 -70 32 -76 5 -7 11 -21 13 -33 2 -12 11 -28 19 -37 9 -8 16 -24 16 -35 0 -10 9 -28 20 -39 11 -11 20 -31 20 -45 0 -14 5 -25 11 -25 5 0 7 -4 4 -10 -3 -5 -1 -10 4 -10 6 0 11 -14 11 -31 0 -17 7 -37 15 -45 8 -9 15 -29 15 -45 0 -17 7 -37 15 -45 8 -9 15 -30 15 -48 0 -19 7 -39 15 -46 9 -7 15 -29 15 -51 0 -20 7 -44 15 -53 9 -8 15 -33 15 -59 0 -27 6 -49 15 -57 10 -8 15 -30 15 -65 0 -35 5 -57 15 -65 10 -9 15 -32 15 -74 1 -38 6 -68 15 -80 10 -13 15 -43 15 -83 0 -35 7 -80 15 -100 10 -23 15 -70 15 -137 0 -55 7 -128 15 -161 18 -77 21 -481 3 -567 -10 -46 -10 -63 0 -78 7 -11 12 -31 12 -45 0 -14 13 -38 30 -55 17 -17 30 -35 30 -40 0 -6 11 -10 24 -10 14 0 31 -7 40 -15 16 -17 126 -22 126 -6 0 5 10 13 22 16 27 9 88 64 88 81 0 7 6 14 13 16 8 3 14 47 18 149 4 79 12 198 18 265 8 90 8 159 0 270 -6 82 -14 235 -18 339 -4 110 -12 202 -19 218 -7 16 -12 70 -12 120 -1 65 -5 98 -15 111 -10 14 -15 45 -15 97 0 56 -4 80 -15 89 -10 9 -15 32 -15 74 0 39 -5 69 -15 82 -8 10 -15 41 -15 69 0 28 -7 59 -15 69 -8 11 -15 39 -15 62 0 25 -6 47 -15 54 -9 8 -15 30 -15 60 0 33 -5 50 -15 54 -10 3 -15 19 -15 43 0 21 -7 47 -15 57 -8 11 -15 33 -15 49 0 15 -7 35 -15 43 -8 9 -15 27 -15 42 0 15 -7 36 -15 46 -8 11 -15 32 -15 47 0 15 -6 29 -13 32 -7 2 -14 20 -15 38 -1 19 -9 39 -17 45 -8 6 -15 23 -15 38 0 15 -7 29 -15 32 -8 4 -15 18 -15 34 0 16 -7 35 -15 44 -8 8 -15 24 -15 36 0 11 -7 23 -15 26 -8 4 -15 16 -15 29 0 12 -7 28 -15 35 -8 7 -15 23 -15 35 0 13 -7 25 -15 29 -8 3 -15 14 -15 24 0 11 -7 25 -15 32 -8 7 -15 21 -15 32 0 10 -7 21 -15 24 -8 4 -15 17 -15 30 0 14 -7 27 -15 30 -8 4 -15 14 -15 24 0 10 -7 25 -15 34 -8 8 -15 17 -15 21 0 4 -7 13 -15 21 -8 9 -15 24 -15 35 0 10 -7 19 -15 19 -8 0 -15 6 -15 13 0 7 -16 28 -35 47 -19 19 -45 53 -56 77 -11 24 -25 43 -30 43 -5 0 -15 15 -22 33 -8 17 -30 49 -50 69 -19 20 -38 45 -41 56 -4 11 -31 44 -60 75 -30 30 -67 75 -84 99 -28 41 -495 518 -507 518 -8 0 -26 16 -82 70 -45 43 -66 59 -108 78 -11 6 -29 20 -40 32 -11 12 -36 30 -55 40 -19 10 -48 32 -64 49 -17 17 -35 31 -42 31 -7 0 -31 16 -54 35 -23 19 -47 35 -54 35 -7 0 -23 11 -36 25 -13 14 -28 25 -34 25 -6 0 -29 14 -50 30 -22 17 -43 30 -47 30 -4 0 -36 19 -71 43 -35 23 -74 48 -88 54 -14 7 -43 24 -65 38 -22 14 -47 27 -55 31 -8 3 -22 9 -30 14 -29 18 -444 222 -484 239 -59 26 -87 30 -123 20z"
       id="path2017" />
    <path
       d="M19727 9283 c25 -73 141 -84 172 -17 15 33 14 34 -12 34 -12 0 -28 -9 -35 -20 -7 -11 -21 -20 -32 -20 -11 0 -28 9 -37 20 -22 26 -65 28 -56 3z"
       id="path2019" />
    <path
       d="M14353 9199 c-39 -11 -79 -57 -93 -107 -13 -49 -13 -176 1 -227 14 -52 53 -93 103 -106 81 -22 165 12 192 77 21 51 19 249 -4 294 -31 62 -118 92 -199 69z m115 -55 c40 -28 52 -66 52 -164 0 -98 -12 -136 -52 -164 -30 -21 -88 -20 -114 2 -36 29 -44 57 -44 162 0 105 8 133 44 162 26 22 84 23 114 2z"
       id="path2021" />
    <path
       d="M7670 8975 l0 -225 30 0 30 0 0 200 0 200 110 0 110 0 0 25 0 25 -140 0 -140 0 0 -225z"
       id="path2023" />
    <path
       d="M8490 8975 l0 -225 30 0 30 0 0 90 0 90 70 0 c39 0 86 6 105 14 74 31 101 144 49 205 -33 39 -77 51 -191 51 l-93 0 0 -225z m221 162 c44 -34 47 -91 7 -134 -19 -20 -31 -23 -100 -23 l-78 0 0 85 0 85 78 0 c45 -1 84 -6 93 -13z"
       id="path2025" />
    <path
       d="M9300 9196 c0 -2 29 -81 65 -174 36 -94 65 -178 65 -186 0 -22 -29 -46 -56 -46 -19 0 -24 -5 -24 -25 0 -22 4 -25 33 -25 39 0 72 21 92 60 8 15 41 100 74 187 33 87 64 171 70 186 11 28 10 28 -20 25 -31 -3 -33 -6 -81 -143 -27 -76 -50 -140 -51 -142 -3 -2 -29 67 -89 235 -17 47 -22 52 -49 52 -16 0 -29 -2 -29 -4z"
       id="path2027" />
    <path
       d="M10160 8975 l0 -225 30 0 30 0 0 200 0 200 100 0 100 0 0 -200 0 -200 25 0 25 0 0 225 0 225 -155 0 -155 0 0 -225z"
       id="path2029" />
    <path
       d="M11050 8975 l0 -225 30 0 30 0 0 200 0 200 100 0 100 0 0 -200 0 -200 25 0 25 0 0 225 0 225 -155 0 -155 0 0 -225z"
       id="path2031" />
    <path
       d="M12055 9188 c-3 -7 -39 -105 -80 -217 -41 -112 -75 -208 -75 -213 0 -4 13 -8 28 -8 25 0 30 6 43 48 l15 47 96 3 96 3 18 -51 c16 -44 21 -50 46 -50 15 0 28 3 28 6 0 5 -128 356 -155 427 -8 20 -53 23 -60 5z m69 -173 c20 -55 36 -103 36 -107 0 -5 -34 -8 -75 -8 -41 0 -75 4 -75 8 0 7 48 154 65 201 8 20 10 16 49 -94z"
       id="path2033" />
    <path
       d="M13420 8975 l0 -225 25 0 25 0 0 105 0 105 59 0 c74 0 88 -15 121 -129 22 -78 24 -81 52 -81 28 0 30 2 24 28 -23 94 -51 167 -70 187 l-22 22 22 29 c12 16 33 64 47 107 l26 77 -29 0 c-27 0 -30 -5 -55 -80 -31 -94 -49 -110 -122 -110 l-53 0 0 95 c0 95 0 95 -25 95 l-25 0 0 -225z"
       id="path2035" />
    <path
       d="M15130 8975 l0 -225 30 0 30 0 0 158 1 157 23 -55 c74 -174 84 -190 113 -190 25 1 32 9 60 73 18 40 43 95 55 122 l23 50 3 -157 3 -158 24 0 25 0 0 226 0 225 -27 -3 c-25 -3 -34 -16 -93 -150 -36 -81 -67 -149 -70 -152 -3 -2 -36 65 -74 150 -66 147 -70 154 -97 154 l-29 0 0 -225z"
       id="path2037" />
    <path
       d="M16100 8975 l0 -225 30 0 30 0 0 200 0 200 100 0 100 0 0 -200 0 -200 25 0 25 0 0 225 0 225 -155 0 -155 0 0 -225z"
       id="path2039" />
    <path
       d="M17095 9188 c-3 -7 -39 -105 -80 -217 -41 -112 -75 -208 -75 -213 0 -4 13 -8 28 -8 25 0 30 6 43 48 l15 47 96 3 96 3 18 -51 c16 -44 21 -50 46 -50 15 0 28 3 28 6 0 5 -128 356 -155 427 -8 20 -53 23 -60 5z m69 -173 c20 -55 36 -103 36 -107 0 -5 -34 -8 -75 -8 -41 0 -75 4 -75 8 0 7 48 154 65 201 8 20 10 16 49 -94z"
       id="path2041" />
    <path
       d="M17850 8975 l0 -225 30 0 30 0 0 100 0 100 100 0 100 0 0 -100 0 -100 25 0 25 0 0 225 0 225 -25 0 -25 0 0 -100 0 -100 -100 0 -100 0 0 100 0 100 -30 0 -30 0 0 -225z"
       id="path2043" />
    <path
       d="M18730 8975 l0 -225 28 0 c24 0 39 19 137 167 l110 166 3 -166 2 -167 30 0 30 0 0 225 0 225 -24 0 c-21 0 -44 -28 -143 -177 l-118 -178 -3 178 -2 177 -25 0 -25 0 0 -225z"
       id="path2045" />
    <path
       d="M19650 8975 l0 -225 28 0 c24 0 39 19 137 167 l110 166 3 -166 2 -167 30 0 30 0 0 225 0 225 -25 0 c-21 0 -42 -27 -142 -177 l-118 -178 -3 178 -2 177 -25 0 -25 0 0 -225z"
       id="path2047" />
    <path
       d="M3050 8330 c0 -5 -10 -12 -23 -15 -12 -3 -31 -19 -42 -35 -11 -17 -26 -30 -32 -30 -7 0 -13 -11 -13 -25 0 -15 -6 -39 -14 -54 -13 -24 -13 -31 0 -56 8 -15 14 -38 14 -51 0 -13 3 -24 8 -24 4 0 15 -14 24 -30 9 -17 24 -30 31 -30 8 0 17 -7 21 -15 3 -8 16 -15 30 -15 13 0 26 -7 30 -15 3 -9 18 -15 35 -15 16 0 31 -6 35 -15 3 -8 16 -15 30 -15 13 0 26 -7 30 -15 3 -8 16 -15 30 -15 13 0 26 -7 30 -15 3 -8 15 -15 26 -15 11 0 23 -7 26 -15 4 -8 16 -15 29 -15 13 0 25 -7 29 -15 3 -8 14 -15 25 -15 10 0 21 -7 25 -15 3 -8 15 -15 26 -15 11 0 20 -7 20 -15 0 -8 7 -15 15 -15 16 0 27 -8 66 -42 10 -10 25 -18 33 -18 8 0 16 -7 20 -15 3 -8 15 -15 26 -15 11 0 20 -7 20 -15 0 -8 6 -15 14 -15 8 0 16 -7 20 -15 3 -8 10 -15 16 -15 13 0 28 -12 91 -72 28 -27 52 -48 54 -48 5 0 45 -36 150 -137 47 -46 83 -83 80 -83 -3 0 8 -13 25 -30 16 -16 30 -32 30 -35 0 -3 26 -31 58 -62 32 -32 68 -74 80 -93 11 -19 35 -46 52 -60 17 -14 47 -49 67 -77 19 -29 39 -53 43 -53 4 0 12 -13 18 -28 5 -16 22 -41 36 -57 14 -15 26 -33 26 -40 0 -7 11 -24 25 -39 13 -14 22 -26 20 -26 -6 0 62 -113 79 -132 9 -10 16 -24 16 -32 0 -8 6 -21 13 -28 16 -16 177 -333 177 -348 0 -6 7 -18 15 -26 8 -9 15 -24 15 -35 0 -10 5 -19 10 -19 6 0 10 -9 10 -20 0 -12 7 -35 16 -51 8 -17 17 -38 19 -47 8 -33 40 -117 47 -122 4 -3 10 -21 13 -40 3 -19 10 -39 16 -46 8 -10 14 -32 40 -159 6 -27 14 -54 19 -60 4 -5 10 -34 14 -64 4 -30 11 -62 16 -72 5 -9 12 -43 14 -76 3 -32 12 -86 21 -120 15 -59 19 -287 12 -693 -1 -63 0 -124 3 -134 3 -11 28 -42 55 -70 l50 -50 88 0 c74 0 90 3 98 17 6 9 17 17 24 17 8 0 15 3 15 8 0 4 11 19 24 33 30 32 56 160 56 270 0 41 5 146 11 234 13 179 -3 654 -26 755 -6 30 -13 84 -14 119 -1 36 -5 70 -9 75 -8 13 -10 24 -18 91 -3 27 -10 57 -15 67 -5 9 -9 31 -9 48 0 17 -7 47 -16 68 -9 20 -17 49 -19 64 -1 15 -6 38 -13 50 -6 13 -21 59 -33 103 -12 44 -26 84 -31 90 -4 5 -8 15 -8 23 0 8 -6 28 -14 45 -37 82 -56 131 -56 142 0 8 -5 15 -10 17 -6 2 -12 12 -14 23 -6 25 -37 88 -48 96 -5 3 -11 16 -13 29 -2 13 -9 26 -15 30 -6 4 -13 17 -15 30 -2 13 -8 26 -12 29 -11 8 -73 110 -73 120 0 4 -13 23 -30 41 -16 18 -30 39 -30 46 0 7 -15 28 -34 46 -18 18 -36 43 -40 55 -4 12 -24 39 -44 60 -21 21 -60 67 -87 102 -28 35 -107 121 -177 190 -122 122 -141 139 -188 171 -13 8 -41 32 -64 54 -22 21 -53 43 -68 48 -16 5 -28 14 -28 19 0 5 -7 9 -15 9 -9 0 -18 7 -21 15 -3 8 -15 17 -26 21 -11 3 -17 8 -14 12 6 5 -18 21 -59 40 -11 6 -33 22 -48 36 -15 14 -35 26 -43 26 -8 0 -17 7 -20 15 -4 8 -13 15 -20 15 -8 0 -17 7 -20 15 -4 8 -15 15 -25 15 -10 0 -28 8 -38 18 -35 31 -47 39 -69 46 -12 4 -22 12 -22 17 0 5 -9 9 -20 9 -11 0 -23 6 -26 14 -3 8 -16 17 -30 20 -13 4 -24 11 -24 16 0 6 -9 10 -20 10 -11 0 -23 7 -26 15 -4 8 -17 15 -30 15 -14 0 -27 7 -30 15 -4 8 -17 15 -30 15 -15 0 -24 6 -24 15 0 10 -10 15 -29 15 -16 0 -31 6 -35 15 -3 8 -16 15 -30 15 -13 0 -26 7 -30 15 -3 8 -14 15 -25 15 -11 0 -26 7 -35 15 -8 8 -23 15 -34 15 -11 0 -25 7 -32 15 -7 8 -23 15 -37 15 -13 0 -26 7 -29 15 -4 9 -19 15 -35 15 -17 0 -32 6 -35 15 -5 12 -24 15 -85 15 -45 0 -79 -4 -79 -10z"
       id="path2049" />
    <path
       d="M8653 7789 c-6 -6 -53 -14 -104 -17 -59 -3 -98 -10 -107 -19 -7 -7 -29 -13 -48 -13 -20 0 -42 -7 -50 -15 -9 -8 -29 -15 -45 -15 -16 0 -29 -4 -29 -10 0 -5 -12 -13 -27 -16 -15 -4 -38 -13 -52 -20 -14 -8 -32 -14 -38 -14 -7 0 -13 -4 -13 -10 0 -5 -12 -13 -26 -16 -14 -4 -39 -18 -54 -33 -44 -40 -58 -51 -67 -51 -20 0 -163 -154 -163 -175 0 -3 -12 -18 -26 -33 -14 -15 -30 -36 -35 -47 -5 -11 -18 -33 -29 -50 -11 -16 -23 -38 -26 -47 -4 -10 -11 -18 -16 -18 -5 0 -6 -4 -3 -10 3 -5 1 -10 -4 -10 -6 0 -11 -11 -11 -24 0 -13 -7 -29 -15 -36 -8 -7 -15 -25 -15 -40 0 -16 -7 -30 -15 -34 -9 -3 -15 -19 -15 -41 0 -20 -7 -43 -15 -51 -8 -9 -14 -32 -13 -59 0 -25 -6 -52 -13 -61 -8 -10 -16 -54 -20 -108 -3 -50 -12 -130 -19 -178 -11 -71 -11 -105 0 -190 7 -57 15 -146 19 -199 4 -58 11 -103 20 -113 7 -9 13 -36 13 -61 -1 -27 5 -50 13 -59 8 -8 15 -30 15 -50 0 -19 6 -41 13 -48 8 -7 17 -30 21 -51 4 -20 11 -37 16 -37 6 0 10 -13 10 -29 0 -16 6 -31 15 -35 8 -3 15 -12 15 -20 0 -8 6 -21 13 -28 17 -19 35 -49 47 -77 6 -14 21 -34 33 -46 22 -21 41 -48 54 -74 13 -28 118 -121 138 -121 5 -1 21 -14 35 -30 13 -17 32 -30 42 -30 10 0 18 -4 18 -9 0 -5 10 -13 22 -17 12 -3 28 -13 36 -20 7 -8 25 -14 38 -14 14 0 23 -4 19 -9 -3 -6 15 -13 39 -16 25 -4 47 -13 50 -21 3 -9 20 -14 45 -14 25 0 41 -5 45 -15 4 -11 21 -15 61 -15 31 0 54 -4 51 -9 -3 -5 14 -12 39 -15 24 -4 47 -11 50 -17 8 -12 272 -12 279 0 3 5 26 12 51 15 25 4 45 11 45 17 0 5 23 9 50 9 36 0 52 4 56 15 4 9 19 15 39 15 19 0 40 7 49 15 8 8 26 15 41 15 14 0 28 7 31 15 4 8 17 15 30 15 14 0 27 7 30 15 4 8 17 15 30 15 15 0 24 6 24 15 0 8 8 15 18 15 11 0 28 8 40 18 11 9 30 24 42 32 12 8 28 21 36 28 7 6 16 12 19 12 10 0 75 63 75 73 0 4 -11 18 -25 31 -14 13 -25 28 -25 34 0 5 -7 12 -15 16 -8 3 -15 12 -15 20 0 8 -13 28 -30 44 -16 17 -30 35 -30 41 0 6 -6 11 -14 11 -8 0 -16 10 -19 23 -4 12 -25 42 -49 67 -24 24 -42 48 -40 52 5 19 -29 6 -60 -22 -18 -16 -38 -30 -46 -30 -7 0 -23 -11 -35 -24 -13 -14 -35 -28 -50 -31 -14 -4 -31 -13 -38 -21 -6 -8 -20 -14 -31 -14 -11 0 -26 -7 -34 -15 -9 -8 -28 -15 -44 -15 -15 0 -41 -7 -56 -15 -41 -21 -252 -21 -280 0 -10 8 -31 15 -46 15 -15 0 -33 7 -42 15 -8 8 -22 15 -31 15 -8 0 -18 7 -21 15 -4 8 -14 15 -23 15 -18 0 -91 71 -91 89 0 6 -5 11 -12 11 -6 0 -9 3 -5 6 3 3 -5 16 -19 29 -13 12 -24 31 -24 42 0 11 -7 26 -15 33 -8 7 -15 19 -15 27 0 8 -7 27 -14 42 -8 15 -16 39 -18 52 -2 13 -9 34 -16 46 -7 12 -15 48 -17 80 -3 34 -12 63 -20 69 -22 17 -22 531 0 560 8 10 15 39 15 64 0 25 9 63 20 85 11 22 19 52 20 66 0 15 7 32 15 39 8 7 15 23 15 35 0 12 7 28 15 35 8 7 15 23 15 35 0 13 6 25 13 28 7 2 21 22 32 42 22 42 74 98 99 108 9 4 16 10 16 15 0 5 14 12 31 16 17 3 28 10 24 16 -4 6 6 10 24 10 16 0 36 7 45 15 12 12 46 15 176 15 130 0 164 -3 176 -15 9 -8 31 -15 50 -15 19 0 33 -4 30 -9 -7 -10 17 -21 45 -21 11 0 17 -4 14 -10 -3 -5 5 -12 19 -16 13 -3 27 -12 30 -20 3 -8 12 -14 21 -14 8 0 15 -4 15 -9 0 -5 11 -12 25 -15 14 -4 23 -11 20 -16 -3 -6 3 -10 14 -10 12 0 21 4 21 9 0 4 10 19 23 32 35 37 99 119 93 119 -3 0 13 18 35 40 23 22 46 40 52 40 6 0 8 3 4 6 -3 3 6 18 21 33 51 51 54 57 40 80 -7 12 -17 21 -23 21 -5 0 -23 14 -39 30 -16 17 -35 30 -43 30 -7 0 -16 7 -19 15 -4 8 -14 15 -24 15 -10 0 -25 6 -32 14 -8 7 -24 17 -36 20 -12 4 -20 11 -17 15 2 5 -13 11 -35 15 -22 3 -40 11 -40 16 0 6 -11 10 -24 10 -13 0 -29 7 -36 15 -7 9 -29 15 -51 15 -20 0 -44 6 -51 13 -9 9 -50 16 -117 20 -57 3 -108 10 -114 16 -15 15 -160 14 -174 0z"
       id="path2051"
       style="fill:#1261a0;fill-opacity:1" />
    <path
       d="M10422 7155 c-7 -8 -29 -15 -48 -15 -20 0 -42 -7 -50 -15 -9 -8 -29 -15 -45 -15 -16 0 -29 -4 -29 -9 0 -11 -75 -51 -94 -51 -7 0 -19 -7 -26 -15 -7 -8 -18 -15 -26 -15 -17 0 -214 -198 -214 -215 0 -8 -8 -19 -17 -24 -10 -6 -14 -11 -9 -11 6 0 0 -9 -12 -20 -12 -12 -22 -30 -22 -40 0 -11 -4 -20 -10 -20 -5 0 -13 -12 -16 -27 -4 -16 -13 -37 -20 -48 -8 -11 -14 -29 -14 -40 0 -12 -5 -26 -11 -32 -7 -7 -16 -35 -20 -64 -5 -29 -13 -55 -18 -58 -5 -4 -11 -42 -14 -86 -2 -44 -9 -114 -16 -155 -8 -56 -8 -95 0 -155 7 -44 15 -114 18 -155 4 -41 12 -85 19 -97 6 -12 12 -33 12 -47 0 -24 15 -68 46 -129 8 -16 14 -37 14 -48 0 -11 6 -22 14 -25 8 -3 17 -16 20 -28 3 -12 17 -34 30 -49 13 -14 27 -36 31 -47 8 -25 129 -150 145 -150 12 0 32 -15 58 -42 9 -10 27 -18 39 -18 13 0 23 -4 23 -10 0 -5 12 -13 27 -16 15 -4 34 -13 41 -21 7 -7 24 -13 37 -13 12 0 25 -7 29 -15 3 -9 18 -15 39 -15 19 0 40 -7 47 -15 8 -10 30 -15 61 -15 27 0 49 -4 49 -9 0 -5 18 -12 40 -16 22 -4 42 -11 46 -16 7 -12 274 -12 274 0 0 5 23 12 50 16 28 4 48 11 45 15 -3 5 18 10 47 12 36 2 52 7 50 16 -1 8 11 12 37 12 21 0 44 6 50 14 7 8 27 17 46 20 19 4 35 11 35 16 0 6 9 10 19 10 11 0 26 7 34 15 8 7 26 17 41 21 14 3 26 10 26 15 0 5 7 9 15 9 9 0 18 7 21 15 4 8 14 15 24 15 20 0 90 61 90 78 0 5 -7 12 -15 16 -8 3 -15 12 -15 21 0 8 -4 15 -10 15 -5 0 -10 6 -10 14 0 8 -15 29 -32 47 -18 18 -32 37 -30 41 1 5 -5 11 -13 14 -8 4 -15 11 -15 18 0 6 -14 25 -30 43 -17 18 -30 36 -30 40 0 15 -39 43 -59 43 -10 0 -21 -7 -25 -15 -3 -8 -13 -15 -21 -15 -9 0 -13 -5 -10 -10 4 -6 -7 -13 -24 -16 -16 -4 -32 -12 -35 -20 -3 -8 -15 -14 -26 -14 -12 0 -28 -7 -36 -15 -9 -8 -27 -15 -40 -15 -14 0 -32 -7 -40 -15 -11 -11 -37 -15 -90 -15 -48 0 -73 -4 -69 -10 4 -6 -10 -10 -34 -10 -23 0 -41 5 -41 10 0 6 -28 10 -64 10 -44 0 -69 5 -80 15 -8 8 -24 15 -36 15 -11 0 -23 6 -26 14 -3 8 -17 17 -30 20 -14 4 -22 11 -19 16 3 6 0 10 -8 10 -8 0 -27 19 -43 43 -16 23 -32 44 -35 47 -3 3 -9 17 -13 33 -3 15 -11 27 -16 27 -6 0 -10 15 -10 33 0 17 -7 41 -15 51 -9 12 -15 42 -15 73 l0 53 612 2 612 3 15 95 c11 76 12 111 3 176 -7 44 -12 111 -12 150 -1 41 -7 79 -15 94 -8 14 -14 41 -15 60 0 19 -9 48 -19 63 -10 16 -17 37 -14 46 2 10 -3 23 -11 30 -9 8 -16 19 -16 27 0 15 -41 87 -52 92 -4 2 -8 11 -8 21 0 41 -269 281 -316 281 -8 0 -17 7 -20 15 -4 8 -18 15 -34 15 -16 0 -35 6 -42 13 -7 8 -36 16 -63 19 -27 4 -51 11 -53 17 -3 8 -72 11 -220 11 -178 -1 -219 -3 -230 -15z m328 -384 c0 -5 14 -13 32 -16 32 -8 34 -9 80 -49 33 -30 88 -131 88 -163 0 -13 6 -39 14 -58 8 -19 16 -67 17 -107 l2 -73 -338 -3 -338 -2 7 31 c3 17 6 55 6 85 0 33 5 58 15 68 8 8 15 30 15 50 0 22 6 38 16 44 11 6 15 17 11 31 -3 14 0 21 9 21 8 0 18 8 21 18 6 15 41 51 85 88 8 6 26 14 41 18 15 3 27 11 27 16 0 6 40 10 95 10 52 0 95 -4 95 -9z"
       id="path2053"
       style="fill:#1261a0;fill-opacity:1" />
    <path
       d="M12888 7159 c-2 -5 -24 -13 -48 -16 -25 -4 -51 -12 -58 -20 -7 -7 -24 -13 -37 -13 -12 0 -25 -7 -29 -15 -3 -8 -12 -15 -21 -15 -8 0 -15 -4 -15 -10 0 -5 -6 -10 -14 -10 -8 0 -50 -36 -95 -80 -44 -44 -87 -80 -94 -80 -10 0 -16 19 -19 68 -3 37 -14 84 -24 105 l-18 37 -243 0 c-161 0 -249 -4 -261 -11 -15 -10 -17 -20 -10 -78 4 -36 7 -739 7 -1561 1 -822 1 -1502 1 -1511 0 -13 17 -15 123 -11 67 2 128 9 135 15 8 6 76 13 157 15 128 4 145 7 166 26 l24 21 -5 605 c-3 333 -1 610 3 617 7 10 14 8 32 -5 13 -9 21 -20 18 -25 -2 -4 4 -10 14 -14 10 -4 24 -13 31 -20 7 -7 19 -13 27 -13 7 0 15 -7 19 -15 3 -8 14 -15 25 -15 10 0 21 -7 25 -15 3 -8 17 -15 31 -15 15 0 23 -4 20 -10 -3 -5 7 -12 22 -16 56 -13 123 -37 129 -45 9 -16 179 -11 210 6 16 8 37 15 46 15 9 0 20 5 24 11 3 6 14 9 24 6 21 -5 53 11 45 24 -4 5 5 9 19 9 13 0 31 7 40 15 8 8 21 15 30 15 8 0 19 6 23 14 4 8 17 16 28 18 22 3 185 159 185 177 0 6 4 11 10 11 5 0 12 11 16 24 3 14 12 27 20 30 8 3 14 15 14 26 0 11 4 20 10 20 5 0 13 12 16 27 4 15 13 34 21 41 7 7 13 22 13 33 0 11 7 27 15 35 8 9 15 29 15 45 0 17 7 37 15 45 10 10 15 35 15 69 0 34 5 55 13 57 9 4 13 75 15 299 3 298 -2 395 -19 368 -6 -9 -9 8 -9 49 0 36 -6 75 -14 90 -8 15 -18 44 -21 65 -3 21 -10 35 -16 32 -5 -4 -9 7 -9 24 0 16 -6 36 -14 44 -8 7 -16 25 -18 38 -2 13 -9 23 -16 21 -7 -1 -12 9 -12 23 0 14 -5 25 -12 25 -6 0 -9 3 -6 6 11 10 -182 194 -203 194 -11 0 -22 7 -25 15 -4 8 -17 15 -30 15 -12 0 -27 7 -32 16 -5 9 -12 15 -15 15 -30 -4 -58 1 -71 14 -12 12 -47 15 -184 15 -112 0 -172 -4 -174 -11z m-2 -418 c-6 -10 40 -21 86 -21 16 0 27 -4 23 -9 -3 -5 4 -13 16 -16 28 -9 89 -75 89 -96 0 -9 7 -22 15 -29 8 -7 15 -26 15 -42 0 -16 7 -36 15 -44 11 -11 15 -37 15 -89 0 -50 4 -75 13 -77 9 -4 12 -52 12 -198 0 -146 -3 -194 -12 -197 -9 -3 -13 -28 -13 -78 0 -49 -5 -78 -14 -87 -7 -8 -16 -35 -20 -61 -4 -26 -11 -45 -16 -42 -5 3 -11 -4 -15 -15 -3 -11 -11 -20 -16 -20 -5 0 -9 -8 -9 -18 0 -10 -9 -24 -21 -32 -11 -8 -30 -23 -41 -32 -12 -10 -29 -18 -38 -18 -10 0 -21 -7 -24 -16 -5 -13 -25 -15 -136 -12 -82 2 -133 7 -138 14 -4 6 -17 14 -29 18 -13 4 -23 12 -23 17 0 5 -6 9 -14 9 -21 0 -85 79 -91 113 -3 18 -5 220 -3 450 3 386 4 419 21 428 9 6 17 15 17 22 0 19 72 93 98 101 12 4 20 12 17 17 -4 5 3 9 15 9 11 0 23 7 26 15 4 9 19 15 38 15 17 0 42 7 56 14 28 16 94 21 86 7z"
       id="path2055"
       style="fill:#1261a0;fill-opacity:1" />
    <path
       d="M14588 7159 c-2 -7 -43 -14 -103 -17 -55 -2 -103 -10 -107 -15 -4 -6 -44 -14 -90 -18 -46 -3 -78 -7 -73 -8 6 -1 -1 -7 -15 -14 l-25 -13 0 -984 0 -985 504 0 c395 0 505 3 509 13 2 8 30 12 92 12 65 0 92 4 104 15 8 8 32 15 55 15 22 0 46 7 55 15 8 8 29 15 46 15 18 0 33 6 36 15 4 8 17 15 30 15 14 0 27 7 30 15 4 8 14 15 25 15 24 0 185 161 193 194 3 14 11 26 16 26 6 0 10 11 10 25 0 14 7 28 15 31 12 5 15 34 15 171 0 133 -3 167 -15 179 -8 9 -15 24 -15 35 0 10 -4 19 -9 19 -5 0 -11 10 -15 23 -4 18 -55 74 -138 151 -9 9 -23 16 -31 16 -8 0 -20 7 -27 15 -7 8 -21 15 -31 15 -9 0 -24 7 -33 15 -8 9 -33 15 -59 15 -61 0 -77 8 -77 36 0 21 5 24 39 24 22 0 46 6 53 14 8 7 29 17 46 21 18 3 30 11 26 16 -3 5 2 9 11 9 22 0 155 137 155 159 0 11 7 26 15 35 12 11 15 44 15 156 0 112 -3 145 -15 156 -8 9 -15 24 -15 35 0 10 -4 19 -10 19 -5 0 -10 7 -10 15 0 18 -118 145 -135 145 -10 0 -24 9 -72 50 -7 5 -20 10 -30 10 -10 0 -31 7 -47 15 -15 8 -39 15 -51 15 -13 0 -30 6 -37 14 -8 7 -43 15 -78 18 -36 3 -66 10 -68 16 -5 17 -659 17 -664 1z m424 -360 c2 -6 31 -13 65 -16 35 -3 60 -9 58 -13 -3 -4 6 -11 20 -14 26 -7 65 -39 65 -55 0 -5 7 -11 15 -15 12 -4 15 -27 15 -116 l0 -111 -49 -50 c-27 -27 -57 -49 -69 -49 -11 0 -22 -6 -24 -12 -4 -10 -49 -14 -171 -16 l-167 -3 0 224 c0 225 0 225 23 231 12 3 32 6 45 6 12 0 22 5 22 10 0 14 147 13 152 -1z m50 -779 c2 -5 31 -13 65 -16 38 -4 64 -12 67 -20 3 -8 15 -14 26 -14 26 0 55 -29 64 -64 4 -15 10 -24 15 -22 5 3 11 -22 13 -57 6 -77 -2 -198 -12 -192 -4 3 -11 -6 -14 -20 -8 -30 -36 -65 -52 -65 -6 0 -17 -7 -24 -15 -7 -8 -25 -15 -40 -15 -15 0 -41 -7 -56 -15 -22 -11 -66 -15 -186 -15 -157 0 -158 0 -158 23 -2 146 2 502 6 508 7 13 282 11 286 -1z"
       id="path2057"
       style="fill:#1261a0;fill-opacity:1" />
    <path
       d="M19188 7159 c-2 -6 -27 -14 -56 -17 -28 -2 -57 -11 -63 -18 -6 -8 -22 -14 -36 -14 -13 0 -31 -7 -39 -15 -9 -8 -24 -15 -35 -15 -10 0 -19 -4 -19 -9 0 -5 -13 -14 -30 -20 -16 -5 -30 -15 -30 -20 0 -6 -9 -11 -20 -11 -24 0 -250 -221 -250 -245 0 -9 -12 -27 -26 -40 -15 -14 -23 -25 -18 -25 4 0 3 -5 -4 -12 -7 -7 -12 -20 -12 -31 0 -10 -4 -16 -9 -13 -11 7 -21 -17 -21 -49 0 -12 -7 -25 -15 -29 -9 -3 -15 -18 -15 -39 0 -19 -7 -40 -15 -47 -9 -8 -15 -30 -15 -60 0 -31 -5 -52 -15 -60 -14 -11 -16 -49 -13 -283 2 -205 6 -271 16 -275 7 -2 12 -22 12 -53 0 -35 4 -51 15 -55 10 -4 15 -20 15 -45 0 -26 5 -42 15 -45 8 -4 15 -17 15 -30 0 -14 7 -27 15 -30 8 -4 15 -17 15 -30 0 -14 6 -27 14 -30 8 -3 17 -16 20 -30 4 -13 11 -24 16 -24 6 0 10 -5 10 -12 0 -6 20 -31 44 -54 25 -23 42 -44 40 -47 -2 -2 8 -13 22 -23 15 -10 41 -34 59 -51 17 -18 37 -33 44 -33 7 0 10 -4 7 -9 -4 -5 7 -12 23 -16 16 -3 32 -13 35 -21 3 -8 16 -14 30 -14 13 0 26 -7 30 -15 3 -8 15 -15 26 -15 12 0 28 -7 36 -15 9 -8 30 -15 49 -15 20 0 35 -6 39 -15 4 -10 20 -15 50 -15 25 0 47 -4 50 -9 4 -5 24 -12 46 -16 22 -4 42 -11 46 -16 9 -16 248 -11 280 6 16 8 37 15 47 15 9 0 17 5 17 10 0 6 18 10 39 10 46 0 73 9 65 21 -3 5 11 9 30 9 19 0 41 7 50 15 8 8 26 15 39 15 14 0 30 6 36 14 7 8 23 17 36 20 14 4 25 11 25 16 0 6 9 10 20 10 11 0 23 7 26 15 4 8 12 15 19 15 8 0 20 6 27 13 7 7 21 16 31 20 9 3 17 17 17 30 0 23 -10 39 -62 100 -15 18 -28 37 -28 44 0 6 -13 24 -28 40 -16 15 -32 41 -36 56 -3 15 -11 25 -16 22 -6 -3 -10 0 -10 7 0 8 -8 21 -17 30 -24 22 -53 60 -53 71 0 11 -102 -44 -113 -60 -4 -7 -19 -13 -31 -13 -13 0 -26 -7 -30 -15 -3 -8 -16 -15 -28 -15 -13 0 -32 -7 -42 -15 -29 -22 -278 -21 -300 0 -8 8 -24 15 -34 15 -24 0 -142 114 -142 137 0 8 -7 21 -15 29 -8 9 -15 29 -15 45 0 17 -7 37 -15 45 -11 12 -15 40 -15 117 0 70 -3 97 -10 87 -7 -10 -10 16 -10 83 0 63 4 96 10 92 6 -4 10 29 10 92 0 72 4 105 15 119 8 10 15 33 15 51 0 17 7 38 15 47 8 8 15 22 15 31 0 8 7 18 15 21 8 4 15 14 15 23 1 20 29 55 53 64 9 3 17 11 17 17 0 5 6 10 14 10 8 0 21 6 28 13 7 8 30 17 51 21 21 4 35 11 32 17 -4 5 39 9 109 9 69 0 116 -4 118 -10 2 -6 21 -13 43 -17 22 -3 44 -12 48 -20 4 -7 19 -13 31 -13 13 0 26 -7 30 -15 3 -8 15 -15 26 -15 12 0 34 -14 50 -32 l29 -31 40 40 c23 22 41 48 41 57 0 10 5 14 10 11 6 -3 10 0 10 8 0 8 16 31 35 51 19 21 35 43 35 50 0 7 13 26 30 42 16 16 30 33 30 37 0 5 7 15 15 23 8 9 15 25 15 36 0 23 -43 68 -65 68 -8 0 -28 14 -45 30 -17 17 -40 30 -51 30 -11 0 -22 7 -25 15 -4 8 -17 15 -29 15 -13 0 -30 7 -39 15 -8 8 -28 15 -45 15 -16 0 -33 5 -36 10 -4 6 -11 8 -16 5 -5 -4 -9 -1 -9 4 0 6 -11 11 -24 11 -40 0 -86 12 -80 21 3 5 -91 9 -215 9 -154 0 -220 -3 -223 -11z"
       id="path2059"
       style="fill:#1261a0;fill-opacity:1" />
    <path
       d="M2310 7131 c0 -5 -12 -13 -27 -19 -34 -12 -73 -48 -73 -67 0 -8 -7 -18 -15 -22 -23 -13 -24 -150 -1 -185 10 -16 23 -28 28 -28 5 0 7 -4 3 -9 -3 -5 3 -12 14 -16 11 -3 22 -12 25 -20 3 -8 16 -15 30 -15 13 0 26 -7 30 -15 3 -10 19 -15 44 -15 23 0 45 -6 52 -15 7 -8 23 -15 37 -15 13 0 31 -7 39 -15 9 -8 26 -15 39 -15 12 0 25 -7 29 -15 3 -8 17 -15 31 -15 15 0 24 -4 20 -10 -4 -6 7 -13 24 -16 16 -4 32 -12 35 -20 3 -8 15 -14 26 -14 11 0 23 -7 26 -15 4 -8 12 -15 19 -15 7 0 15 -7 19 -15 3 -8 14 -15 24 -15 10 0 29 -13 42 -30 14 -16 31 -29 38 -30 6 0 12 -4 12 -9 0 -5 8 -12 19 -16 10 -3 40 -26 66 -50 26 -25 51 -45 56 -45 5 0 9 -4 9 -10 0 -13 37 -50 50 -50 6 0 10 -7 10 -15 0 -8 7 -15 15 -15 8 0 15 -4 15 -10 0 -5 7 -18 15 -27 8 -10 14 -20 13 -23 -2 -3 12 -20 30 -38 17 -17 32 -34 32 -36 0 -3 13 -19 29 -35 16 -17 32 -39 36 -50 3 -12 11 -21 16 -21 5 0 9 -6 9 -14 0 -8 7 -16 15 -20 8 -3 15 -15 15 -26 0 -11 4 -20 9 -20 5 0 13 -9 16 -20 3 -11 13 -20 21 -20 8 0 14 -10 14 -25 0 -13 6 -28 13 -32 6 -4 21 -26 32 -48 11 -22 25 -44 32 -48 7 -4 13 -19 13 -31 0 -13 7 -26 15 -30 8 -3 15 -16 15 -30 0 -13 7 -26 15 -30 8 -3 15 -17 15 -31 0 -14 4 -25 10 -25 5 0 14 -18 20 -40 6 -21 15 -42 20 -45 6 -3 10 -19 10 -36 0 -19 5 -29 15 -29 11 0 15 -11 15 -39 0 -25 5 -41 15 -45 10 -3 15 -19 15 -46 0 -27 5 -43 15 -46 10 -4 15 -21 15 -54 0 -30 6 -52 15 -60 11 -9 15 -33 15 -89 1 -47 6 -86 15 -101 21 -37 21 -386 0 -437 -17 -41 -22 -253 -5 -253 5 0 12 -11 16 -25 3 -13 15 -27 25 -30 11 -4 17 -11 14 -16 -4 -5 3 -9 14 -9 11 0 26 -7 35 -15 17 -17 156 -22 156 -5 0 5 11 12 25 16 14 3 25 10 25 14 0 5 8 11 18 15 21 7 52 71 52 111 0 16 7 38 15 48 10 13 15 44 15 93 0 43 6 89 15 110 22 52 22 604 0 647 -9 17 -15 56 -15 101 0 52 -4 76 -15 85 -10 8 -15 31 -15 64 0 29 -7 59 -15 70 -8 11 -15 34 -15 51 0 17 -7 40 -15 51 -8 10 -15 31 -15 46 0 15 -7 33 -15 42 -8 8 -15 25 -15 38 0 13 -7 32 -15 42 -8 11 -15 30 -15 43 0 13 -7 26 -15 29 -8 4 -15 17 -15 30 0 14 -7 27 -15 30 -8 4 -15 17 -15 30 0 14 -7 27 -15 30 -8 4 -15 17 -15 30 0 14 -7 27 -15 30 -8 4 -15 15 -15 25 0 10 -4 19 -10 19 -5 0 -12 11 -16 24 -3 14 -12 27 -20 30 -8 3 -14 12 -14 20 0 9 -13 29 -30 46 -16 17 -30 34 -30 39 0 5 -7 14 -15 21 -8 7 -15 19 -15 26 0 16 -35 54 -50 54 -5 0 -10 3 -10 8 0 7 -123 145 -148 166 -7 6 -40 37 -73 69 -33 31 -63 57 -65 57 -3 0 -17 13 -33 29 -15 16 -38 32 -50 36 -11 3 -21 11 -21 16 0 5 -4 9 -9 9 -6 0 -25 14 -43 30 -18 17 -38 30 -46 30 -7 0 -15 6 -18 14 -3 8 -16 17 -30 20 -13 4 -24 11 -24 16 0 6 -9 10 -19 10 -10 0 -21 7 -25 15 -3 8 -15 15 -26 15 -11 0 -23 6 -26 14 -3 8 -19 18 -35 21 -16 4 -27 11 -23 16 3 5 -4 9 -15 9 -11 0 -26 6 -33 13 -7 8 -26 17 -41 21 -15 3 -27 11 -27 16 0 6 -8 10 -18 10 -10 0 -27 7 -38 15 -10 8 -29 15 -42 15 -12 0 -25 7 -28 15 -4 8 -18 15 -34 15 -15 0 -33 7 -40 15 -7 8 -25 15 -41 15 -15 0 -34 7 -43 15 -8 8 -29 15 -46 15 -18 0 -33 6 -36 15 -5 11 -24 15 -80 15 -41 0 -74 -4 -74 -9z"
       id="path2061" />
    <path
       d="M16300 7099 c0 -5 -4 -7 -10 -4 -7 4 -10 -328 -10 -988 0 -898 2 -995 16 -1001 9 -3 141 -6 295 -6 266 0 280 1 299 20 11 11 20 28 20 39 0 10 7 24 15 31 8 7 15 23 15 35 0 13 7 25 15 29 8 3 15 16 15 30 0 13 7 26 15 30 8 3 15 17 15 31 0 14 4 25 10 25 5 0 13 12 16 28 4 15 13 36 20 47 8 11 14 30 14 43 0 13 4 21 9 17 6 -3 13 10 16 29 4 19 13 37 21 40 8 3 14 19 14 35 0 16 6 31 15 35 8 3 15 16 15 30 0 13 7 26 15 30 8 3 15 16 15 30 0 13 7 26 15 30 9 3 15 18 15 36 0 16 4 30 10 30 5 0 13 12 16 27 4 15 13 34 21 41 7 7 13 24 13 36 0 13 7 29 15 36 8 7 15 20 15 30 0 10 7 23 15 30 8 7 15 23 15 35 0 13 7 25 15 29 8 3 15 16 15 30 0 13 7 26 15 30 8 3 15 17 15 31 0 14 4 25 10 25 5 0 13 12 16 28 4 15 13 36 20 47 8 11 14 30 14 43 0 13 4 21 9 18 11 -7 21 17 21 50 0 14 4 23 9 20 10 -6 21 16 21 41 0 14 37 52 53 53 10 0 8 -42 -3 -60 -5 -8 -10 -10 -11 -5 -1 6 -5 -25 -9 -68 -3 -43 -11 -81 -17 -85 -6 -4 -13 -67 -16 -147 -3 -86 -10 -141 -16 -143 -8 -3 -11 -140 -11 -447 0 -395 2 -444 16 -449 20 -8 538 -8 558 0 14 6 16 103 16 999 0 896 -2 993 -16 999 -9 3 -148 6 -311 6 -225 0 -297 -3 -307 -13 -7 -7 -16 -29 -20 -50 -4 -20 -11 -37 -16 -37 -6 0 -10 -9 -10 -19 0 -11 -7 -26 -15 -35 -8 -8 -15 -24 -15 -35 0 -11 -7 -24 -17 -29 -10 -6 -14 -16 -10 -26 4 -10 -1 -21 -13 -28 -11 -7 -20 -23 -20 -35 0 -12 -7 -29 -16 -37 -8 -9 -13 -20 -10 -24 3 -5 -3 -18 -13 -28 -10 -11 -21 -37 -25 -57 -4 -20 -11 -37 -16 -37 -6 0 -10 -8 -10 -18 0 -10 -7 -27 -15 -38 -8 -10 -15 -26 -15 -35 0 -9 -7 -22 -15 -29 -8 -7 -15 -21 -15 -31 0 -9 -6 -24 -13 -31 -8 -7 -17 -26 -21 -41 -3 -15 -11 -27 -16 -27 -6 0 -10 -9 -10 -19 0 -11 -6 -26 -13 -33 -8 -7 -17 -30 -21 -51 -4 -20 -11 -37 -16 -37 -6 0 -10 -9 -10 -19 0 -11 -6 -26 -14 -33 -7 -8 -17 -29 -21 -46 -4 -19 -11 -30 -17 -26 -7 5 -9 -1 -5 -15 4 -15 -1 -26 -14 -34 -10 -6 -19 -22 -19 -34 0 -12 -7 -29 -16 -37 -8 -9 -13 -20 -10 -24 3 -5 -4 -18 -14 -30 -11 -12 -20 -28 -20 -36 0 -24 -12 -46 -21 -40 -5 3 -9 -7 -10 -23 0 -29 -16 -75 -19 -58 -2 6 -5 -3 -9 -20 -4 -16 -12 -29 -19 -28 -7 2 -11 -2 -9 -9 1 -6 -6 -14 -15 -16 -15 -3 -18 3 -18 33 0 20 4 34 9 31 14 -9 21 20 21 84 0 37 4 60 12 62 8 3 14 40 16 114 2 61 9 115 16 123 12 15 23 892 12 937 l-6 24 -270 0 c-183 0 -270 -3 -270 -11z"
       id="path2063"
       style="fill:#1261a0;fill-opacity:1" />
    <path
       d="M860 5035 c-9 -11 -12 -422 -3 -456 l6 -22 323 7 323 7 11 -22 c9 -16 11 -394 9 -1568 -2 -850 0 -1552 4 -1558 6 -10 79 -13 307 -13 275 0 300 1 307 18 4 9 6 711 3 1559 -4 1256 -3 1546 8 1560 12 17 39 18 335 18 l322 0 5 67 c3 37 11 73 18 80 8 8 12 44 12 103 1 59 6 99 15 115 18 32 20 109 3 111 -7 1 -460 2 -1006 3 -652 1 -996 -2 -1002 -9z"
       id="path2065" />
    <path
       d="M3645 3501 c-16 -5 -61 -9 -100 -10 -44 -1 -77 -7 -89 -16 -11 -8 -35 -15 -53 -15 -21 0 -36 -6 -39 -15 -4 -8 -18 -15 -34 -15 -16 0 -30 -7 -34 -15 -3 -8 -16 -15 -30 -15 -13 0 -26 -7 -30 -15 -3 -8 -11 -15 -18 -15 -8 0 -28 -13 -46 -30 -18 -16 -35 -30 -38 -30 -8 0 -44 -40 -44 -50 0 -5 -4 -10 -10 -10 -5 0 -19 -9 -30 -20 -11 -11 -20 -24 -20 -30 0 -5 -6 -10 -12 -10 -15 0 -108 -134 -108 -156 0 -8 -7 -17 -15 -20 -8 -4 -15 -16 -15 -29 0 -12 -7 -28 -15 -35 -8 -7 -15 -25 -15 -41 0 -15 -7 -34 -15 -43 -8 -8 -15 -32 -15 -54 0 -23 -6 -45 -15 -52 -11 -9 -15 -33 -15 -85 0 -39 -7 -94 -15 -121 -19 -63 -19 -164 0 -237 8 -32 15 -88 15 -126 0 -44 5 -74 15 -87 8 -10 15 -36 15 -56 0 -20 7 -43 15 -52 8 -8 15 -28 15 -44 0 -17 6 -32 15 -36 8 -3 15 -16 15 -29 0 -13 5 -28 11 -34 13 -13 33 -47 48 -80 6 -13 15 -23 21 -23 5 0 10 -6 10 -14 0 -8 7 -16 15 -20 8 -3 15 -12 15 -19 0 -8 19 -33 43 -55 99 -96 153 -142 163 -142 6 0 21 -9 34 -20 13 -11 31 -20 41 -20 9 0 19 -5 21 -10 2 -6 12 -12 23 -14 11 -3 54 -15 95 -29 114 -37 287 -60 405 -54 149 7 315 39 378 73 15 8 27 13 27 10 0 -4 17 3 37 14 21 11 41 20 46 20 5 0 34 12 65 27 77 37 192 128 192 153 0 14 -30 60 -55 85 -11 11 -31 37 -44 59 -14 21 -37 51 -52 67 -15 15 -30 37 -34 48 -3 12 -11 21 -16 21 -5 0 -9 7 -9 15 0 8 -7 15 -15 15 -9 0 -18 7 -21 15 -9 23 -26 18 -54 -15 -13 -17 -32 -30 -42 -30 -10 0 -21 -7 -24 -15 -4 -8 -15 -15 -25 -15 -11 0 -22 -7 -25 -15 -4 -8 -16 -15 -29 -15 -12 0 -28 -7 -35 -15 -7 -8 -27 -15 -45 -15 -18 0 -38 -7 -45 -15 -18 -22 -292 -22 -310 0 -7 8 -23 15 -35 15 -12 0 -28 7 -35 15 -7 8 -18 15 -25 15 -18 0 -145 139 -145 159 0 10 -7 24 -15 31 -8 7 -15 29 -15 49 0 20 -7 45 -15 55 -8 11 -15 37 -15 58 l0 38 619 0 c534 0 620 2 631 15 22 26 24 213 6 373 -10 81 -22 155 -27 165 -6 11 -13 38 -15 60 -3 23 -9 46 -15 51 -5 6 -9 16 -9 23 0 18 -80 179 -99 201 -9 9 -29 35 -46 57 -40 53 -96 105 -115 105 -9 0 -27 13 -40 30 -14 16 -33 29 -43 30 -10 0 -20 7 -23 15 -4 8 -14 15 -24 15 -10 0 -23 7 -30 15 -7 8 -23 15 -35 15 -12 0 -28 7 -35 15 -7 8 -29 15 -50 15 -21 0 -43 6 -49 14 -7 9 -44 16 -104 20 -50 3 -119 8 -152 10 -33 3 -73 1 -90 -3z m191 -416 c4 -8 17 -15 31 -15 31 0 123 -98 123 -130 0 -10 7 -23 15 -30 8 -7 15 -29 15 -49 0 -21 7 -46 15 -57 10 -13 14 -45 15 -101 l0 -83 -330 0 -330 0 0 78 c1 52 5 83 15 96 8 11 15 35 15 53 0 21 6 36 15 39 8 4 15 17 15 30 0 13 8 33 18 44 51 60 107 110 122 110 10 0 23 7 30 15 10 11 36 15 112 15 78 0 100 -3 104 -15z"
       id="path2067" />
    <path
       d="M7935 3500 c-22 -5 -67 -9 -100 -10 -36 0 -68 -7 -79 -15 -11 -8 -35 -15 -53 -15 -21 0 -36 -6 -39 -15 -4 -9 -19 -15 -35 -15 -16 0 -32 -6 -35 -14 -3 -8 -16 -17 -30 -20 -13 -4 -24 -11 -24 -16 0 -6 -9 -10 -20 -10 -11 0 -20 -7 -20 -15 0 -8 -9 -15 -20 -15 -11 0 -23 -7 -26 -15 -4 -8 -12 -15 -20 -15 -23 0 -144 -132 -144 -156 0 -8 -7 -17 -15 -20 -8 -4 -15 -12 -15 -19 0 -7 -7 -15 -15 -19 -8 -3 -15 -15 -15 -26 0 -11 -7 -23 -15 -26 -8 -4 -15 -16 -15 -29 0 -12 -7 -28 -15 -35 -8 -7 -15 -21 -15 -32 0 -11 -7 -26 -15 -34 -8 -9 -15 -30 -15 -48 0 -19 -7 -39 -15 -46 -10 -8 -15 -31 -15 -64 0 -29 -7 -59 -15 -70 -22 -29 -22 -483 0 -512 8 -10 15 -40 15 -65 0 -25 7 -54 15 -65 8 -10 15 -33 15 -50 0 -17 7 -37 15 -44 8 -7 15 -23 15 -35 0 -12 7 -28 15 -35 8 -7 15 -21 15 -31 0 -9 7 -24 15 -33 8 -8 15 -19 15 -25 0 -6 4 -11 9 -11 5 0 13 -10 17 -22 3 -13 32 -48 63 -79 32 -30 70 -72 86 -93 32 -42 112 -97 195 -133 30 -14 67 -31 81 -38 14 -8 28 -12 31 -9 3 2 29 -5 58 -16 29 -11 60 -18 70 -15 10 3 49 -1 87 -10 86 -20 246 -20 341 0 40 8 88 15 107 15 19 0 37 5 40 10 3 6 17 10 29 10 35 0 234 89 308 138 42 27 128 102 128 111 0 4 -16 24 -35 46 -19 22 -38 49 -41 60 -4 11 -17 29 -29 41 -13 12 -34 39 -48 60 -14 21 -36 51 -49 66 -13 14 -28 35 -34 45 -10 16 -13 17 -39 3 -16 -8 -42 -27 -59 -42 -17 -16 -39 -28 -49 -28 -9 0 -20 -7 -23 -15 -4 -8 -16 -15 -29 -15 -12 0 -28 -7 -35 -15 -7 -8 -27 -15 -45 -15 -18 0 -38 -7 -45 -15 -18 -22 -318 -22 -326 0 -4 9 -19 15 -40 15 -24 0 -34 5 -34 15 0 8 -8 15 -18 15 -10 0 -32 13 -50 30 -18 16 -37 30 -43 30 -5 0 -9 6 -9 14 0 7 -7 19 -15 26 -8 7 -15 20 -15 30 0 10 -7 20 -15 24 -9 3 -15 18 -15 34 0 16 -7 35 -15 42 -10 8 -15 30 -15 61 0 26 -4 51 -10 54 -5 3 -10 15 -10 26 0 19 13 19 630 19 347 0 630 1 631 3 0 1 3 86 6 188 4 148 2 197 -10 240 -8 30 -18 79 -22 109 -3 30 -11 60 -16 66 -5 6 -11 24 -13 40 -8 54 -89 224 -107 224 -4 0 -9 10 -13 23 -6 25 -159 187 -176 187 -11 0 -24 9 -61 43 -10 9 -28 17 -38 17 -10 0 -21 7 -25 15 -3 8 -16 15 -30 15 -14 0 -31 7 -40 15 -8 8 -32 15 -54 15 -25 0 -42 5 -45 14 -4 10 -35 15 -109 20 -57 4 -130 8 -163 10 -33 3 -78 1 -100 -4z m205 -415 c7 -8 21 -15 31 -15 11 0 19 -4 19 -10 0 -5 11 -12 25 -16 31 -8 93 -91 118 -158 10 -28 20 -82 22 -121 3 -38 7 -81 10 -93 12 -51 8 -52 -351 -52 l-334 0 0 49 c0 31 5 53 15 61 9 8 15 30 15 60 0 30 6 52 15 60 8 7 15 25 15 40 0 16 7 30 15 34 8 3 15 13 15 23 1 18 32 63 44 63 10 0 46 39 46 50 0 6 11 10 24 10 13 0 29 7 36 15 10 11 35 15 110 15 75 0 100 -4 110 -15z"
       id="path2069" />
    <path
       d="M12160 3500 c-25 -5 -84 -9 -131 -9 -64 -1 -90 -5 -99 -16 -7 -8 -29 -15 -50 -15 -21 0 -43 -7 -50 -15 -7 -8 -25 -15 -40 -15 -16 0 -30 -7 -34 -15 -3 -8 -16 -15 -30 -15 -13 0 -26 -7 -30 -15 -3 -8 -17 -15 -31 -15 -16 0 -25 -6 -25 -15 0 -8 -7 -15 -15 -15 -8 0 -15 -5 -15 -11 0 -5 -13 -15 -30 -20 -16 -6 -30 -15 -30 -20 0 -5 -5 -9 -10 -9 -19 0 -110 -104 -110 -125 0 -9 -7 -18 -15 -21 -8 -4 -15 -12 -15 -19 0 -7 -7 -15 -15 -19 -8 -3 -15 -15 -15 -26 0 -11 -7 -23 -15 -26 -8 -4 -15 -14 -15 -24 0 -10 -7 -23 -15 -30 -8 -7 -15 -23 -15 -37 0 -13 -7 -26 -15 -29 -9 -4 -15 -19 -15 -38 0 -18 -7 -41 -15 -52 -8 -10 -15 -37 -15 -59 0 -22 -7 -49 -15 -59 -22 -29 -22 -543 0 -572 8 -10 15 -39 15 -64 0 -25 7 -54 15 -64 8 -11 15 -34 15 -52 0 -19 6 -34 15 -38 8 -3 15 -14 15 -24 0 -10 7 -27 15 -38 8 -10 15 -26 15 -35 0 -9 7 -19 15 -23 8 -3 15 -13 15 -23 0 -10 14 -31 30 -47 17 -16 30 -35 30 -42 0 -6 7 -14 15 -18 8 -3 15 -11 15 -18 0 -7 28 -38 62 -68 34 -30 70 -63 80 -72 43 -42 274 -137 333 -138 17 0 62 -7 100 -15 90 -19 251 -19 342 0 39 8 78 12 87 9 8 -3 30 2 49 11 19 9 45 17 59 19 13 1 67 23 119 49 101 49 223 150 279 231 15 23 37 52 49 65 12 13 21 30 21 38 0 7 7 16 15 19 8 4 15 15 15 26 0 10 4 16 10 13 5 -3 12 12 16 34 3 22 13 42 20 45 8 3 14 19 14 36 0 17 7 38 15 46 9 10 15 34 15 64 0 30 5 50 13 52 8 3 13 42 15 136 2 77 7 130 13 127 5 -4 9 18 9 50 0 35 -4 54 -10 50 -6 -4 -10 38 -10 119 0 97 -3 128 -15 140 -8 8 -15 32 -15 55 0 22 -7 46 -15 55 -8 8 -15 26 -15 39 0 34 -10 58 -21 51 -5 -3 -9 9 -9 26 0 18 -6 33 -15 36 -8 4 -15 14 -15 24 0 10 -13 32 -29 49 -17 18 -33 41 -37 53 -7 23 -189 208 -205 208 -11 0 -72 41 -77 53 -2 4 -15 7 -28 7 -14 0 -27 7 -30 15 -4 9 -19 15 -39 15 -20 0 -35 6 -39 15 -3 10 -19 15 -44 15 -22 0 -45 6 -51 14 -7 9 -48 15 -129 19 -64 3 -126 8 -137 11 -11 2 -40 0 -65 -4z m130 -445 c7 -8 25 -15 41 -15 16 0 37 -8 47 -18 10 -10 27 -25 38 -33 21 -15 70 -78 92 -118 50 -88 84 -402 62 -564 -7 -50 -14 -112 -15 -137 -1 -25 -8 -56 -14 -69 -7 -12 -14 -36 -16 -51 -2 -16 -15 -47 -29 -69 -14 -22 -26 -44 -26 -48 -1 -13 -48 -63 -60 -63 -6 0 -18 -7 -26 -15 -9 -8 -24 -15 -33 -15 -10 0 -24 -7 -31 -15 -18 -22 -202 -22 -220 0 -7 8 -25 15 -40 15 -16 0 -30 7 -34 15 -3 8 -11 15 -18 15 -16 0 -68 50 -68 66 0 6 -7 17 -15 24 -8 7 -15 21 -15 32 0 10 -7 21 -15 24 -10 4 -15 20 -15 44 0 21 -6 43 -14 49 -12 10 -28 194 -28 326 0 132 16 316 28 326 8 6 14 26 14 45 0 18 6 39 13 46 8 7 17 26 21 41 3 15 11 27 16 27 6 0 10 4 10 9 0 11 69 81 80 81 4 0 13 7 20 15 7 8 29 15 49 15 20 0 45 7 55 15 27 20 129 20 146 0z"
       id="path2071" />
    <path
       d="M5185 3418 c-3 -7 -10 -87 -15 -178 -16 -265 -36 -496 -44 -509 -4 -7 -7 -48 -7 -93 0 -44 -6 -109 -14 -144 -8 -36 -17 -96 -20 -135 -3 -39 -10 -80 -15 -90 -6 -10 -12 -42 -14 -72 -2 -29 -11 -67 -19 -84 -9 -17 -14 -33 -11 -36 3 -3 -1 -20 -9 -39 -46 -108 -61 -138 -67 -138 -4 0 -13 -13 -19 -28 -11 -26 -72 -92 -85 -92 -3 0 -17 -10 -31 -22 l-25 -21 25 -33 c14 -18 25 -37 25 -42 0 -5 11 -22 25 -38 14 -16 25 -34 25 -40 0 -7 15 -34 33 -61 48 -72 56 -85 75 -117 41 -68 41 -68 97 -40 104 53 239 148 272 191 15 21 34 44 41 51 7 8 20 28 29 45 9 18 19 34 23 37 12 8 101 192 106 220 3 14 12 40 20 58 8 18 12 36 9 42 -3 5 1 26 10 46 8 20 15 53 15 73 0 21 6 60 14 87 8 27 17 86 20 131 4 46 10 93 15 106 5 12 12 76 15 142 4 66 11 136 16 155 5 19 12 80 15 135 4 55 12 106 17 113 8 9 58 12 188 12 164 0 178 -1 195 -20 17 -19 18 -58 13 -784 -3 -446 -1 -770 4 -780 8 -14 42 -16 298 -16 158 0 295 3 304 6 14 6 16 104 16 1010 l0 1004 -780 0 c-615 0 -782 -3 -785 -12z"
       id="path2073" />
    <path
       d="M9290 3413 c0 -10 0 -460 -1 -1000 0 -541 3 -987 6 -993 8 -13 564 -13 584 -1 12 8 13 69 8 403 -4 216 -4 410 -1 431 l7 37 81 0 c88 0 108 -11 122 -65 3 -14 10 -25 16 -25 5 0 14 -13 19 -29 6 -16 17 -32 25 -35 8 -3 14 -14 14 -25 0 -10 7 -21 15 -25 8 -3 15 -14 15 -24 0 -11 7 -25 15 -32 8 -7 15 -20 15 -30 0 -10 7 -20 15 -24 8 -3 15 -12 15 -20 0 -8 14 -38 30 -66 17 -28 30 -57 30 -64 0 -8 7 -16 15 -20 8 -3 15 -14 15 -24 0 -11 7 -25 15 -32 8 -7 15 -21 15 -32 0 -10 7 -21 15 -24 8 -4 15 -16 15 -29 0 -12 7 -28 15 -35 8 -7 15 -25 15 -40 0 -16 7 -30 15 -34 8 -3 15 -16 15 -30 0 -13 7 -26 15 -30 8 -3 15 -14 15 -24 0 -10 10 -28 23 -40 23 -22 29 -22 330 -22 l307 0 0 25 c0 13 -6 28 -13 32 -8 4 -17 15 -20 23 -4 8 -18 33 -32 55 -13 22 -24 47 -25 56 0 9 -7 22 -15 29 -8 7 -15 20 -15 30 0 10 -7 23 -15 30 -8 7 -15 21 -15 32 0 10 -7 21 -15 24 -8 4 -15 14 -15 24 0 10 -7 23 -15 30 -8 7 -15 17 -15 22 0 5 -7 16 -15 24 -8 9 -15 24 -15 34 0 10 -7 20 -15 24 -8 3 -15 16 -15 30 0 13 -7 26 -15 30 -8 3 -15 14 -15 24 0 11 -7 25 -15 32 -8 7 -15 18 -15 25 0 7 -7 18 -15 25 -8 7 -15 20 -15 30 0 10 -7 20 -15 24 -8 3 -15 14 -15 25 0 10 -7 21 -15 25 -8 3 -15 14 -15 24 0 11 -7 25 -15 32 -8 7 -15 23 -15 35 0 13 -7 25 -15 29 -8 3 -15 15 -15 26 0 11 -4 20 -8 20 -4 0 -20 25 -36 55 -15 30 -32 57 -37 60 -15 10 -11 91 6 105 8 7 15 21 15 32 0 10 7 21 15 24 8 4 15 14 15 24 0 10 7 20 15 24 8 3 15 14 15 25 0 10 7 21 15 25 8 3 15 16 15 30 0 13 6 26 13 29 6 3 21 22 32 43 11 22 25 43 32 47 7 4 13 19 13 32 0 14 5 25 11 25 5 0 15 14 20 30 6 17 15 30 20 30 5 0 9 5 9 11 0 6 7 17 15 25 8 9 15 24 15 34 0 10 7 20 15 24 8 3 15 15 15 26 0 11 7 23 15 26 8 4 15 14 15 24 0 10 7 20 15 24 8 3 15 15 15 26 0 11 7 20 15 20 9 0 15 9 15 25 0 14 7 28 15 31 8 4 15 14 15 24 0 10 7 23 15 30 8 7 15 18 15 25 0 7 7 15 15 19 8 3 15 17 15 31 l0 25 -285 0 c-247 0 -285 -2 -285 -15 0 -8 -7 -15 -15 -15 -9 0 -15 -9 -15 -24 0 -13 -7 -29 -15 -36 -8 -7 -15 -18 -15 -26 0 -7 -6 -19 -13 -26 -21 -23 -47 -67 -47 -82 0 -7 -7 -16 -15 -20 -8 -3 -15 -14 -15 -24 0 -11 -7 -25 -15 -32 -8 -7 -15 -21 -15 -32 0 -10 -7 -21 -15 -24 -8 -4 -15 -12 -15 -19 0 -7 -7 -18 -15 -25 -8 -7 -15 -20 -15 -30 0 -10 -7 -20 -15 -24 -8 -3 -15 -14 -15 -24 0 -11 -7 -25 -15 -32 -8 -7 -15 -21 -15 -31 0 -10 -6 -22 -12 -26 -15 -9 -33 -37 -48 -70 -5 -13 -14 -23 -19 -23 -5 0 -14 -13 -21 -30 -7 -16 -16 -30 -20 -30 -5 0 -13 -13 -19 -30 l-10 -30 -94 0 c-95 0 -95 0 -100 27 -3 14 -2 190 0 390 l6 363 -302 0 c-280 0 -301 -1 -301 -17z"
       id="path2075" />
    <path
       d="M13593 3416 c-7 -8 -12 -77 -15 -194 -2 -127 -7 -185 -15 -194 -9 -8 -13 -53 -13 -149 0 -145 -8 -232 -20 -224 -5 3 -10 -71 -11 -164 -3 -106 -8 -173 -15 -182 -8 -9 -13 -77 -16 -182 -2 -107 -8 -171 -15 -175 -7 -4 -12 -66 -15 -166 -3 -112 -8 -161 -16 -164 -8 -2 -12 -36 -12 -107 l0 -104 285 -1 285 -1 0 71 c0 39 4 69 9 66 4 -3 11 47 15 111 4 65 11 123 17 129 6 7 10 211 11 543 1 438 3 531 15 531 9 0 13 -14 13 -44 0 -26 6 -51 15 -60 9 -8 15 -33 15 -60 0 -24 6 -51 14 -58 7 -8 15 -38 18 -68 3 -30 11 -56 17 -58 6 -2 11 -23 11 -47 0 -24 6 -50 14 -57 7 -8 15 -38 18 -68 3 -30 11 -56 17 -58 6 -2 11 -23 11 -47 0 -25 6 -50 15 -59 8 -8 15 -32 15 -54 0 -47 9 -74 21 -66 5 3 9 -20 9 -51 0 -40 4 -57 15 -61 10 -4 15 -21 15 -54 0 -30 6 -54 15 -64 9 -8 15 -33 15 -60 0 -26 6 -51 15 -60 8 -8 15 -28 15 -45 l0 -31 252 2 c216 3 253 5 255 18 8 64 15 90 24 85 5 -4 9 17 9 49 0 35 5 60 15 70 9 8 15 33 15 60 0 26 6 51 15 60 9 8 15 33 15 60 0 24 6 51 14 58 7 8 15 40 18 73 3 32 10 61 16 63 7 2 12 25 12 52 0 31 5 52 14 57 8 5 15 32 18 67 3 33 10 62 16 64 7 2 12 25 12 53 0 35 4 51 15 55 11 5 15 21 15 59 0 34 5 59 15 69 9 9 15 33 15 64 0 33 6 55 18 68 25 28 42 28 42 0 0 -13 -6 -26 -12 -29 -10 -3 -13 -92 -13 -402 0 -310 3 -399 13 -403 9 -3 12 -68 12 -282 0 -240 2 -281 16 -294 13 -14 53 -16 284 -16 148 0 275 3 284 6 11 4 16 19 16 51 0 24 -4 42 -9 39 -13 -8 -21 73 -21 213 0 88 -4 131 -12 139 -9 9 -14 62 -17 170 -2 101 -7 159 -14 164 -8 5 -13 67 -15 177 -3 94 -8 169 -12 166 -12 -7 -20 78 -20 216 0 91 -3 128 -12 131 -9 3 -14 53 -16 179 -3 96 -9 177 -14 180 -5 3 -12 47 -15 97 l-6 92 -357 0 c-411 0 -390 5 -390 -91 -1 -32 -7 -62 -15 -73 -9 -11 -15 -41 -15 -69 0 -30 -6 -54 -15 -63 -10 -10 -15 -35 -15 -70 0 -36 -5 -61 -15 -70 -10 -10 -15 -35 -15 -74 0 -42 -4 -59 -15 -64 -11 -4 -15 -21 -15 -65 0 -37 -4 -61 -12 -63 -7 -3 -14 -32 -16 -71 -2 -37 -8 -65 -12 -62 -11 7 -20 -31 -20 -83 0 -25 -6 -50 -15 -58 -10 -10 -15 -35 -15 -74 0 -34 -5 -60 -11 -62 -6 -2 -14 -21 -18 -43 -7 -45 -31 -61 -31 -20 0 14 -7 33 -15 41 -10 10 -15 35 -15 70 0 30 -4 53 -9 50 -13 -8 -21 19 -21 71 0 26 -6 51 -15 59 -9 9 -15 34 -15 62 0 26 -7 56 -15 66 -8 11 -15 40 -15 64 0 25 -6 50 -15 58 -9 10 -15 34 -15 65 0 32 -6 56 -15 65 -10 10 -15 35 -15 69 0 38 -4 54 -15 59 -11 4 -15 21 -15 61 0 37 -5 62 -15 71 -10 10 -15 35 -15 69 0 38 -4 54 -15 59 -11 4 -15 21 -15 61 l0 55 -372 0 c-295 -1 -375 -4 -385 -14z"
       id="path2077" />
  </g>
</svg>
