<?xml version="1.0" encoding="UTF-8" standalone="no"?>
<svg
   viewBox="0 0 352.38 352.86"
   version="1.1"
   id="svg59"
   sodipodi:docname="Ресурс 1.svg"
   inkscape:version="1.2 (dc2aedaf03, 2022-05-15)"
   xmlns:inkscape="http://www.inkscape.org/namespaces/inkscape"
   xmlns:sodipodi="http://sodipodi.sourceforge.net/DTD/sodipodi-0.dtd"
   xmlns="http://www.w3.org/2000/svg"
   xmlns:svg="http://www.w3.org/2000/svg"
   xmlns:rdf="http://www.w3.org/1999/02/22-rdf-syntax-ns#"
   xmlns:cc="http://creativecommons.org/ns#"
   xmlns:dc="http://purl.org/dc/elements/1.1/">
  <sodipodi:namedview
     id="namedview61"
     pagecolor="#ffffff"
     bordercolor="#000000"
     borderopacity="0.25"
     inkscape:showpageshadow="2"
     inkscape:pageopacity="0.0"
     inkscape:pagecheckerboard="0"
     inkscape:deskcolor="#d1d1d1"
     showgrid="false"
     inkscape:zoom="1.1860228"
     inkscape:cx="131.11046"
     inkscape:cy="178.74867"
     inkscape:window-width="1920"
     inkscape:window-height="1017"
     inkscape:window-x="-8"
     inkscape:window-y="-8"
     inkscape:window-maximized="1"
     inkscape:current-layer="Слой_1-2" />
  <defs
     id="defs35">
    <style
       id="style2">.cls-1{fill:#0e1b29;}.cls-1,.cls-2,.cls-4,.cls-5,.cls-6,.cls-7,.cls-8{fill-rule:evenodd;}.cls-2{fill:#ffc600;}.cls-3{fill:url(#Безымянный_градиент_200);}.cls-4{fill:url(#Безымянный_градиент_199);}.cls-5{fill:url(#Безымянный_градиент_198);}.cls-6{fill:url(#Безымянный_градиент_201);}.cls-7{fill:url(#Безымянный_градиент_202);}.cls-8{fill:#fff;}</style>
    <linearGradient
       id="Безымянный_градиент_200"
       x1="176.19"
       y1="352.64"
       x2="176.19"
       y2="0.26"
       gradientUnits="userSpaceOnUse">
      <stop
         offset="0.42"
         stop-color="#ffc600"
         id="stop4" />
      <stop
         offset="0.86"
         stop-color="#aa7500"
         id="stop6" />
    </linearGradient>
    <linearGradient
       id="Безымянный_градиент_199"
       x1="178.27"
       y1="351.68"
       x2="178.27"
       y2="182.37"
       gradientUnits="userSpaceOnUse">
      <stop
         offset="0.54"
         stop-color="#d90"
         id="stop9" />
      <stop
         offset="0.92"
         stop-color="#aa7500"
         id="stop11" />
    </linearGradient>
    <linearGradient
       id="Безымянный_градиент_198"
       x1="189.34"
       y1="352.86"
       x2="189.34"
       y2="241.27"
       gradientUnits="userSpaceOnUse">
      <stop
         offset="0.57"
         stop-color="#aa7500"
         id="stop14" />
      <stop
         offset="0.94"
         stop-color="#7c5600"
         id="stop16" />
    </linearGradient>
    <linearGradient
       id="Безымянный_градиент_201"
       x1="169.2"
       y1="118.87"
       x2="169.2"
       y2="0.26"
       gradientUnits="userSpaceOnUse">
      <stop
         offset="0.41"
         stop-color="#ffc600"
         id="stop19" />
      <stop
         offset="1"
         stop-color="#b27d00"
         id="stop21" />
    </linearGradient>
    <linearGradient
       id="Безымянный_градиент_202"
       x1="181.68"
       y1="65.01"
       x2="181.68"
       gradientUnits="userSpaceOnUse">
      <stop
         offset="0"
         stop-color="#f3cc68"
         id="stop24" />
      <stop
         offset="0.13"
         stop-color="#f4cc60"
         id="stop26" />
      <stop
         offset="0.35"
         stop-color="#f7ca49"
         id="stop28" />
      <stop
         offset="0.61"
         stop-color="#fbc825"
         id="stop30" />
      <stop
         offset="0.83"
         stop-color="#ffc600"
         id="stop32" />
    </linearGradient>
  </defs>
  <title
     id="title37">Ресурс 1</title>
  <g
     id="Слой_1-2"
     data-name="Слой 1">
    <path
       class="cls-1"
       d="M 163.59,336 A 159.26,159.26 0 0 1 43.88,267.32 H 28.74 a 171.59,171.59 0 0 0 134.85,81.32 z"
       id="path39" />
    <path
       class="cls-2"
       d="m 24.26,228.09 a 159,159 0 0 1 -8.34,-50.74 c 0,-84.11 65.6,-153.13 148.32,-158.71 l 8.7,-13 A 171.73,171.73 0 0 0 15.56,241.1 Z"
       id="path41" />
    <circle
       class="cls-3"
       cx="176.19"
       cy="176.45"
       r="176.19"
       id="circle43"
       style="fill:url(#%D0%91%D0%B5%D0%B7%D1%8B%D0%BC%D1%8F%D0%BD%D0%BD%D1%8B%D0%B9_%D0%B3%D1%80%D0%B0%D0%B4%D0%B8%D0%B5%D0%BD%D1%82_200)" />
    <path
       class="cls-4"
       d="m 5.57,220.57 c -0.26,0.46 23.09,-12.27 49.62,-15.46 26.53,-3.19 67.93,17 94.47,12.74 26.54,-4.26 34,-26.54 73.23,-34 21.83,-4.13 58.76,0.93 87.37,6.23 22.85,4.24 40.4,8.64 40.72,8.64 -16.6,131.55 -147.08,151.89 -147.08,151.89 0,0 -153.52,21.66 -198.33,-130.04 z"
       id="path45"
       style="fill:url(#%D0%91%D0%B5%D0%B7%D1%8B%D0%BC%D1%8F%D0%BD%D0%BD%D1%8B%D0%B9_%D0%B3%D1%80%D0%B0%D0%B4%D0%B8%D0%B5%D0%BD%D1%82_199)" />
    <path
       class="cls-5"
       d="m 38.3,286.14 c -0.09,-0.36 34.94,-21.59 63.59,-25.84 28.65,-4.25 49.89,22.29 106.11,20.17 21.67,-0.82 20.88,-7.21 130.42,-38.65 l 1.93,-0.55 c -5,17 -30.76,65.59 -84.55,92.79 -21.32,10.78 -51.06,17 -56.76,17.11 -2.66,-0.9 -88.47,20.24 -160.74,-65.03 z"
       id="path47"
       style="fill:url(#%D0%91%D0%B5%D0%B7%D1%8B%D0%BC%D1%8F%D0%BD%D0%BD%D1%8B%D0%B9_%D0%B3%D1%80%D0%B0%D0%B4%D0%B8%D0%B5%D0%BD%D1%82_198)" />
    <path
       class="cls-6"
       d="m 11.29,114.29 c 0.39,-0.46 66.19,10.16 92.73,-7.89 26.54,-18.05 74.29,21.23 123.12,10.6 32.9,-3.19 66.86,-30.78 79.6,-34 12.74,-3.22 19.64,2.22 20.36,2.43 C 318.38,74.27 281.13,0.26 172.41,0.26 63.69,0.26 16.22,96.7 11.29,114.29 Z"
       id="path49"
       style="fill:url(#%D0%91%D0%B5%D0%B7%D1%8B%D0%BC%D1%8F%D0%BD%D0%BD%D1%8B%D0%B9_%D0%B3%D1%80%D0%B0%D0%B4%D0%B8%D0%B5%D0%BD%D1%82_201)" />
    <path
       class="cls-7"
       d="M 67.83,37.19 C 67.38,37.27 127.37,65 156,65 c 28.63,0 63.69,-22.29 88.1,-23.35 24.41,-1.06 51.26,5.61 51.42,5.63 C 293.38,41.27 247.25,0.94 184.12,0.6 183.62,0.26 120.38,-6.73 67.83,37.19 Z"
       id="path51"
       style="fill:url(#%D0%91%D0%B5%D0%B7%D1%8B%D0%BC%D1%8F%D0%BD%D0%BD%D1%8B%D0%B9_%D0%B3%D1%80%D0%B0%D0%B4%D0%B8%D0%B5%D0%BD%D1%82_202)" />
    <path
       class="cls-8"
       d="M 220.84,174.69 148.43,50.8 a 12.53,12.53 0 0 0 -21.7,0.11 L 55.64,175.57 a 12.53,12.53 0 0 0 11,18.74 l 143.5,-0.77 a 12.52,12.52 0 0 0 10.7,-18.85 z"
       id="path53" />
    <path
       class="cls-8"
       d="m 221.41,302.05 71.43,-125.24 a 12.34,12.34 0 0 0 -10.79,-18.45 l -144.17,0.77 a 12.34,12.34 0 0 0 -10.59,18.56 l 72.76,124.48 a 12.33,12.33 0 0 0 21.36,-0.12 z"
       id="path55" />
  </g>
  <metadata
     id="metadata377">
    <rdf:RDF>
      <cc:Work
         rdf:about="">
        <dc:title>Ресурс 1</dc:title>
      </cc:Work>
    </rdf:RDF>
  </metadata>
</svg>
